<?xml version="1.0" standalone="no"?>
<!DOCTYPE svg PUBLIC "-//W3C//DTD SVG 1.1//EN" "http://www.w3.org/Graphics/SVG/1.1/DTD/svg11.dtd" >
<svg xmlns="http://www.w3.org/2000/svg" xmlns:xlink="http://www.w3.org/1999/xlink" version="1.1">
<metadata>
Created by FontForge 20170731 at Tue Mar 28 09:40:29 2023
 By Aleksey,,,
Copyright (c) 1999-2022 Typodermic Fonts Inc. All rights reserved.
</metadata>
<defs>
<font id="EthnocentricRg-Regular" horiz-adv-x="2324" >
  <font-face 
    font-family="Ethnocentric Rg"
    font-weight="400"
    font-stretch="normal"
    units-per-em="2048"
    panose-1="2 0 6 0 0 0 0 0 0 0"
    ascent="1526"
    descent="-522"
    x-height="1370"
    cap-height="1370"
    bbox="-338 -522 3885 1935"
    underline-thickness="40"
    underline-position="-333"
    unicode-range="U+0017-2265"
  />
<missing-glyph horiz-adv-x="1484" 
d="M1237 -317h-989q-189 0 -189 161v1723q0 164 189 164h989q188 0 188 -164v-1723q0 -161 -188 -161zM680 553q2 0 97.5 -22.5t178.5 -22.5q169 0 277 119.5t108 296.5q0 68 -27.5 132t-84.5 125t-154.5 113.5t-228.5 89.5l-168 48l-397 -322l499 -141q45 -13 66.5 -29.5
t21.5 -44.5q0 -76 -63 -76q-48 0 -145 30t-150 30q-83 0 -137 -46t-76 -131l-23 -86l381 -110l7 26q3 21 18 21zM430 -6q94 0 158.5 65.5t64.5 161.5q0 101 -82 173.5t-202 72.5q-92 0 -158 -61t-66 -170q0 -101 83.5 -171.5t201.5 -70.5z" />
    <glyph glyph-name=".notdef" horiz-adv-x="1484" 
d="M1237 -317h-989q-189 0 -189 161v1723q0 164 189 164h989q188 0 188 -164v-1723q0 -161 -188 -161zM680 553q2 0 97.5 -22.5t178.5 -22.5q169 0 277 119.5t108 296.5q0 68 -27.5 132t-84.5 125t-154.5 113.5t-228.5 89.5l-168 48l-397 -322l499 -141q45 -13 66.5 -29.5
t21.5 -44.5q0 -76 -63 -76q-48 0 -145 30t-150 30q-83 0 -137 -46t-76 -131l-23 -86l381 -110l7 26q3 21 18 21zM430 -6q94 0 158.5 65.5t64.5 161.5q0 101 -82 173.5t-202 72.5q-92 0 -158 -61t-66 -170q0 -101 83.5 -171.5t201.5 -70.5z" />
    <glyph glyph-name=".null" horiz-adv-x="0" 
 />
    <glyph glyph-name="nonmarkingreturn" horiz-adv-x="682" 
 />
    <glyph glyph-name="uni0017" horiz-adv-x="784" 
 />
    <glyph glyph-name="space" unicode=" " horiz-adv-x="784" 
 />
    <glyph glyph-name="exclam" unicode="!" horiz-adv-x="665" 
d="M121 1370h424v-457l-47 -403h-332l-45 403v457zM106 174q0 93 66 147t166 54q98 0 163.5 -54t65.5 -147q0 -91 -65 -144t-164 -53q-100 0 -166 53t-66 144z" />
    <glyph glyph-name="quotedbl" unicode="&#x22;" horiz-adv-x="913" 
d="M35 1370h379l-125 -549h-129zM500 1370h379l-125 -549h-129z" />
    <glyph glyph-name="numbersign" unicode="#" horiz-adv-x="1370" 
d="M1116 1087h217l-90 -294h-215l-55 -175h217l-90 -292h-215l-101 -326h-233l100 326h-159l-99 -326h-231l98 326h-201l93 292h198l53 175h-198l92 294h197l88 283h231l-86 -283h158l86 283h233zM741 618l54 175h-160l-51 -175h157z" />
    <glyph glyph-name="dollar" unicode="$" horiz-adv-x="1386" 
d="M786 1370v-182h494l-195 -252h-299v-133h156q176 0 269.5 -67.5t93.5 -198.5q0 -316 -416 -316h-103v-221h-168v221h-546l194 248h352v139h-149q-180 0 -271.5 75t-91.5 204q0 143 101.5 222t314.5 79h96v182h168zM913 608h-127v-139h127q103 0 103 70q0 37 -24.5 53
t-78.5 16zM498 803h120v133h-120q-54 0 -78.5 -15t-24.5 -51q0 -37 24.5 -52t78.5 -15z" />
    <glyph glyph-name="percent" unicode="%" horiz-adv-x="2062" 
d="M524 1417q221 0 329 -85.5t108 -266.5q0 -183 -108 -268.5t-329 -85.5q-222 0 -330 85.5t-108 268.5q0 181 108 266.5t330 85.5zM524 889q130 0 179 34.5t49 141.5q0 106 -49 140t-179 34q-132 0 -180.5 -34t-48.5 -140q0 -107 49 -141.5t180 -34.5zM1489 1446h172
l-1092 -1524h-186zM1540 676q220 0 328 -85.5t108 -266.5q0 -183 -108 -269t-328 -86q-222 0 -330 86t-108 269q0 181 108 266.5t330 85.5zM1540 147q129 0 178 35t49 142q0 106 -48.5 140t-178.5 34q-132 0 -180.5 -34t-48.5 -140q0 -107 49 -142t180 -35z" />
    <glyph glyph-name="ampersand" unicode="&#x26;" horiz-adv-x="1787" 
d="M1769 352l-270 -352h-858q-127 0 -223.5 20t-158.5 54.5t-101.5 86t-55.5 109.5t-16 129q0 118 60 198t155 108q-81 29 -134.5 101t-53.5 185q0 185 143 282t395 97h574l-273 -356h-319q-51 0 -84 -20.5t-33 -67.5q0 -49 33 -70.5t84 -21.5h1112l-219 -293h-226v-189h469
zM508 449q0 -97 131 -97h319v189h-319q-131 0 -131 -92z" />
    <glyph glyph-name="quotesingle" unicode="'" horiz-adv-x="448" 
d="M35 1370h379l-125 -549h-129z" />
    <glyph glyph-name="parenleft" unicode="(" horiz-adv-x="718" 
d="M399 1624h234q-126 -283 -186 -511t-60 -431q0 -422 246 -946h-230q-117 258 -171 488t-54 460q0 227 54 454.5t167 485.5z" />
    <glyph glyph-name="parenright" unicode=")" horiz-adv-x="718" 
d="M88 1624h231q114 -259 168 -486t54 -454q0 -230 -54.5 -459.5t-171.5 -488.5h-229q246 536 246 946q0 203 -59.5 430.5t-184.5 511.5z" />
    <glyph glyph-name="asterisk" unicode="*" horiz-adv-x="950" 
d="M86 1024l55 164l246 -80v262h176v-262l250 82l51 -166l-246 -82l154 -211l-141 -100l-156 209l-153 -211l-140 104l152 209z" />
    <glyph glyph-name="plus" unicode="+" horiz-adv-x="1288" 
d="M1204 811v-229h-446v-447h-230v447h-442v229h442v442h230v-442h446z" />
    <glyph glyph-name="comma" unicode="," horiz-adv-x="595" 
d="M98 352h437l-201 -549h-236v549z" />
    <glyph glyph-name="hyphen" unicode="-" horiz-adv-x="950" 
d="M238 825h684l-207 -264h-684z" />
    <glyph glyph-name="period" unicode="." horiz-adv-x="632" 
d="M86 174q0 93 65.5 147t163.5 54q100 0 166 -54t66 -147q0 -91 -66 -144t-166 -53q-99 0 -164 53t-65 144z" />
    <glyph glyph-name="slash" unicode="/" horiz-adv-x="966" 
d="M717 1446h250l-703 -1524h-264z" />
    <glyph glyph-name="zero" unicode="0" horiz-adv-x="1921" 
d="M961 1393q441 0 657.5 -172t216.5 -535q0 -364 -217 -536.5t-657 -172.5q-441 0 -658 173t-217 536t217 535t658 172zM961 334q107 0 177.5 8.5t127.5 30.5t88 62t47 101t16 150t-16 149.5t-47 100.5t-88 61.5t-127.5 30t-177.5 8.5t-177.5 -8.5t-128 -30t-88.5 -61.5
t-47 -100.5t-16 -149.5t16 -150t47.5 -101t88.5 -62t127.5 -30.5t177.5 -8.5z" />
    <glyph glyph-name="one" unicode="1" horiz-adv-x="913" 
d="M25 1014l256 356h501v-1370h-424v1014h-333z" />
    <glyph glyph-name="two" unicode="2" horiz-adv-x="1914" 
d="M156 1014l272 356h803q301 0 444.5 -112t143.5 -314q0 -183 -129 -288t-385 -105h-652q-75 0 -110 -23t-35 -75v-101h1321l-273 -352h-1458v449q0 186 131 280t383 94h652q75 0 110 22.5t35 74.5q0 51 -35 72.5t-110 21.5h-1108z" />
    <glyph glyph-name="three" unicode="3" horiz-adv-x="1865" 
d="M18 0l271 352h938q131 0 131 97q0 92 -131 92h-821l219 293h608q52 0 85.5 21.5t33.5 70.5q0 47 -34 67.5t-85 20.5h-1147l272 356h856q252 0 395.5 -97t143.5 -282q0 -113 -53.5 -184.5t-132.5 -101.5q94 -28 154.5 -108t60.5 -198q0 -71 -16 -129t-56 -109.5
t-102.5 -86t-159 -54.5t-223.5 -20h-1207z" />
    <glyph glyph-name="four" unicode="4" horiz-adv-x="1966" 
d="M1157 164h-893q-92 0 -148.5 54.5t-56.5 129.5q0 94 88 168l990 803q91 74 192 74t167.5 -64t66.5 -192v-637h391l-248 -336h-143v-164h-406v164zM1157 500v205q0 115 8 178q-55 -55 -149 -131l-152 -121q-128 -103 -184 -139q76 8 233 8h244z" />
    <glyph glyph-name="five" unicode="5" horiz-adv-x="1841" 
d="M158 1370h1550l-274 -356h-856v-191h665q251 0 381.5 -94t130.5 -280q0 -449 -586 -449h-1083l272 352h844q75 0 110.5 24t35.5 77q0 52 -35.5 75t-110.5 23h-1044v819z" />
    <glyph glyph-name="six" unicode="6" horiz-adv-x="1988" 
d="M891 1014q-125 0 -222 -51t-145 -140h867q238 0 375 -98t137 -281q0 -467 -856 -467q-480 0 -720.5 175.5t-240.5 545.5q0 197 107 351t294.5 237.5t423.5 83.5h883l-272 -356h-631zM1358 551h-834q15 -54 46.5 -92.5t75.5 -62.5t110 -38t139.5 -19t175.5 -5
q171 0 268 15t130.5 40.5t33.5 67.5q0 49 -35 71.5t-110 22.5z" />
    <glyph glyph-name="seven" unicode="7" horiz-adv-x="1730" 
d="M1645 1030l-879 -1030h-535l672 756q180 204 252 268q-130 -10 -387 -10h-743l270 356h1184q112 0 172.5 -52t60.5 -130q0 -80 -67 -158z" />
    <glyph glyph-name="eight" unicode="8" horiz-adv-x="1951" 
d="M1311 0h-670q-127 0 -223.5 20t-158.5 54.5t-101.5 86t-55.5 109.5t-16 129q0 118 60 198t155 108q-81 29 -134.5 101t-53.5 185q0 185 143 282t395 97h649q252 0 395.5 -97t143.5 -282q0 -113 -53.5 -185t-134.5 -101q95 -28 155 -108t60 -198q0 -71 -16 -129
t-55.5 -109.5t-101.5 -86t-158.5 -54.5t-223.5 -20zM1313 541h-674q-131 0 -131 -92q0 -97 131 -97h674q131 0 131 97q0 92 -131 92zM1319 1014h-686q-51 0 -84 -20.5t-33 -67.5q0 -49 33 -70.5t84 -21.5h686q51 0 84 21.5t33 70.5q0 47 -33 67.5t-84 20.5z" />
    <glyph glyph-name="nine" unicode="9" horiz-adv-x="1988" 
d="M487 352h611q130 0 224 63t142 163q-66 -11 -120.5 -16t-242.5 -10t-503 -5q-238 0 -375 98t-137 281q0 467 856 467q961 0 961 -678q0 -163 -62.5 -298.5t-172.5 -226t-261.5 -140.5t-329.5 -50h-864zM631 819q435 0 581 4.5t252 16.5q-11 43 -32.5 75t-58 53.5
t-78.5 35t-104 20.5t-124 9.5t-149 2.5q-172 0 -268.5 -15t-130.5 -40t-34 -68q0 -94 146 -94z" />
    <glyph glyph-name="colon" unicode=":" horiz-adv-x="753" 
d="M139 174q0 93 66 147t166 54q98 0 163.5 -54t65.5 -147q0 -91 -65 -144t-164 -53q-100 0 -166 53t-66 144zM139 838q0 91 66 144.5t166 53.5q98 0 163.5 -53.5t65.5 -144.5q0 -92 -65 -145.5t-164 -53.5q-100 0 -166 53.5t-66 145.5z" />
    <glyph glyph-name="semicolon" unicode=";" horiz-adv-x="632" 
d="M119 352h436l-203 -549h-233v549zM94 838q0 91 66.5 144.5t165.5 53.5t165 -53.5t66 -144.5q0 -92 -66 -145.5t-165 -53.5t-165.5 53.5t-66.5 145.5z" />
    <glyph glyph-name="less" unicode="&#x3c;" horiz-adv-x="1251" 
d="M1167 360v-249l-1007 471q-74 33 -74 108t74 111l1007 471v-250l-714 -332z" />
    <glyph glyph-name="equal" unicode="=" horiz-adv-x="1288" 
d="M1204 539v-230h-1118v230h1118zM1204 1081v-229h-1118v229h1118z" />
    <glyph glyph-name="greater" unicode="&#x3e;" horiz-adv-x="1251" 
d="M86 111v249l715 330l-715 332v250l1008 -471q73 -37 73 -111q0 -33 -18.5 -62t-54.5 -46z" />
    <glyph glyph-name="question" unicode="?" horiz-adv-x="1521" 
d="M25 1014l274 356h582q301 0 443 -112t142 -314q0 -184 -128 -288.5t-384 -104.5h-206q-41 0 -41 -33v-8h-351v43q0 134 76 202t246 68h235q75 0 110.5 22.5t35.5 74.5q0 51 -35 72.5t-111 21.5h-888zM317 174q0 93 66 147t166 54q98 0 163.5 -54t65.5 -147
q0 -91 -65 -144t-164 -53q-100 0 -166 53t-66 144z" />
    <glyph glyph-name="at" unicode="@" horiz-adv-x="1867" 
d="M1741 1370v-1001h-875q-146 0 -236.5 90t-90.5 223q0 134 89 222.5t238 88.5h451v-432h149v582h-551q-240 0 -398.5 -126.5t-158.5 -326.5q0 -202 157.5 -332.5t399.5 -130.5h615l176 -227h-791q-240 0 -428.5 83t-294.5 236t-106 351q0 148 63.5 278t173 222.5
t263.5 146t329 53.5h826zM942 561h137v256h-137q-65 0 -107 -36t-42 -91q0 -58 41.5 -93.5t107.5 -35.5z" />
    <glyph glyph-name="A" unicode="A" 
d="M2302 0h-1593l256 352h344q177 0 243 -4q-34 45 -139 199l-246 362l-643 -909h-501l878 1239q110 154 275 154q164 0 270 -154z" />
    <glyph glyph-name="B" unicode="B" horiz-adv-x="1974" 
d="M1675 705q94 -28 154.5 -108t60.5 -198q0 -71 -16 -129t-56 -109.5t-102.5 -86t-159 -54.5t-223.5 -20h-1204v834h1212q52 0 85.5 21.5t33.5 70.5q0 47 -34 67.5t-85 20.5h-1212l287 356h907q252 0 395.5 -97t143.5 -282q0 -113 -53.5 -184.5t-133.5 -101.5zM1335 541
h-780v-189h780q131 0 131 97q0 92 -131 92z" />
    <glyph glyph-name="C" unicode="C" horiz-adv-x="1890" 
d="M911 352h961l-273 -352h-688q-175 0 -328.5 53.5t-262.5 146t-171.5 222t-62.5 276.5q0 197 107 351t294.5 237.5t423.5 83.5h961l-273 -356h-688q-173 0 -287 -93.5t-114 -240.5q0 -145 113 -236.5t288 -91.5z" />
    <glyph glyph-name="D" unicode="D" horiz-adv-x="1957" 
d="M1872 698q0 -147 -62.5 -276.5t-171.5 -222t-262.5 -146t-328.5 -53.5h-918v854h426v-502h492q178 0 291.5 90.5t113.5 237.5q0 144 -116 239t-289 95h-918l270 356h648q237 0 425 -85t294 -238.5t106 -348.5z" />
    <glyph glyph-name="E" unicode="E" horiz-adv-x="1736" 
d="M555 352h1165l-272 -352h-1319v1370h1587l-274 -356h-887v-164h1085l-243 -311h-842v-187z" />
    <glyph glyph-name="F" unicode="F" horiz-adv-x="1679" 
d="M129 1370h1536l-274 -356h-836v-178h1032l-258 -334h-774v-502h-426v1370z" />
    <glyph glyph-name="G" unicode="G" horiz-adv-x="1966" 
d="M721 551l254 305h876v-856h-940q-175 0 -328.5 53.5t-262.5 146t-171.5 222t-62.5 276.5q0 197 107 351t294.5 237.5t423.5 83.5h981l-274 -356h-707q-173 0 -288 -94.5t-115 -239.5q0 -148 112 -238t291 -90h519v199h-709z" />
    <glyph glyph-name="H" unicode="H" horiz-adv-x="1923" 
d="M1792 1370v-1370h-422v528h-815v-528h-426v1370h426v-485h815v485h422z" />
    <glyph glyph-name="I" unicode="I" horiz-adv-x="694" 
d="M559 1370v-1370h-424v1370h424z" />
    <glyph glyph-name="J" unicode="J" horiz-adv-x="1499" 
d="M299 352h236q241 0 335.5 61t94.5 210v747h426v-747q0 -623 -856 -623h-512z" />
    <glyph glyph-name="K" unicode="K" horiz-adv-x="1867" 
d="M1290 453l568 -453h-641l-414 360q-188 164 -254 230q6 -189 6 -197v-393h-426v1370h426v-317q0 -96 -8 -240q144 133 252 223l395 334h614l-524 -393q-258 -194 -354 -252q154 -105 360 -272z" />
    <glyph glyph-name="L" unicode="L" horiz-adv-x="1626" 
d="M553 352h1061l-275 -352h-1210v1370h424v-1018z" />
    <glyph glyph-name="M" unicode="M" horiz-adv-x="2578" 
d="M856 1247l219 -387q142 -248 221 -409q60 128 220 407l219 389q81 146 233 146q83 0 147 -48.5t91 -140.5l346 -1204h-422l-129 477q-64 232 -94 377q-72 -154 -191 -379l-184 -344q-50 -94 -104.5 -124t-139.5 -30t-139.5 30t-104.5 124l-184 346q-130 245 -192 377
q-16 -89 -93 -377l-129 -477h-415l354 1204q27 92 92 140.5t148 48.5q152 0 231 -146z" />
    <glyph glyph-name="N" unicode="N" horiz-adv-x="1871" 
d="M1518 -23q-90 0 -170 74l-840 754v-805h-385v1137q0 128 66 192t165 64q88 0 170 -74l840 -754v805h387v-1134q0 -129 -66.5 -194t-166.5 -65z" />
    <glyph glyph-name="O" unicode="O" horiz-adv-x="2174" 
d="M1087 1393q505 0 753.5 -172t248.5 -535t-249 -536t-753 -173q-505 0 -753 172.5t-248 536.5t247.5 535.5t753.5 171.5zM1087 334q135 0 225 8.5t162.5 30.5t112 62t60 101t20.5 150q0 64 -10 112.5t-30 86t-54.5 63.5t-78 43.5t-107 27t-134 13.5t-166.5 4
q-112 0 -191 -5.5t-147.5 -20t-111 -39t-73.5 -64t-43.5 -93.5t-12.5 -128t12.5 -128.5t43.5 -94t73.5 -64t110.5 -39.5t147.5 -20.5t191.5 -5.5z" />
    <glyph glyph-name="P" unicode="P" horiz-adv-x="2023" 
d="M1937 856q0 -230 -179 -368t-494 -138h-717v-350h-422v700h1180q97 0 151.5 43t54.5 115q0 73 -54.5 114.5t-151.5 41.5h-1180l281 356h860q313 0 492 -141t179 -373z" />
    <glyph glyph-name="Q" unicode="Q" horiz-adv-x="2174" 
d="M1399 588l715 -588h-1201q-176 0 -325.5 44.5t-262 129t-176 216t-63.5 296.5q0 364 247.5 535.5t753.5 171.5q505 0 753.5 -172t248.5 -535q0 -134 -59 -229h-455q92 68 92 229q0 64 -10 112.5t-30 86t-54.5 63.5t-78 43.5t-107 27t-134 13.5t-166.5 4q-112 0 -191 -5.5
t-147.5 -20t-111 -39t-73.5 -64t-43.5 -93.5t-12.5 -128q0 -182 102.5 -258t302.5 -76h88q93 0 166 -6q-68 45 -147 107l-174 135h553z" />
    <glyph glyph-name="R" unicode="R" horiz-adv-x="2095" 
d="M1821 266l252 -266h-568l-305 362h-651v-362h-424v700h1192q100 0 166.5 42.5t66.5 111.5q0 78 -61 119t-172 41h-1192l276 356h881q101 0 193.5 -13t188 -47t165.5 -87.5t114 -141t44 -200.5q0 -162 -96.5 -282t-262.5 -153q62 -46 193 -180z" />
    <glyph glyph-name="S" unicode="S" horiz-adv-x="1972" 
d="M653 823h746q252 0 383 -94t131 -280q0 -449 -588 -449h-1276l273 352h1036q76 0 110.5 23.5t34.5 77.5q0 52 -34.5 75t-110.5 23h-746q-256 0 -385 105t-129 288q0 202 143.5 314t444.5 112h1190l-272 -356h-951q-75 0 -110 -21.5t-35 -72.5q0 -52 35 -74.5t110 -22.5z
" />
    <glyph glyph-name="T" unicode="T" horiz-adv-x="1830" 
d="M274 1370h1557l-275 -356h-489v-1014h-424v1014h-643z" />
    <glyph glyph-name="U" unicode="U" horiz-adv-x="2019" 
d="M1909 1370v-772q0 -621 -854 -621q-489 0 -716.5 153.5t-227.5 467.5v772h421v-772q0 -64 13 -106t45 -75.5t92.5 -51t150 -26.5t222.5 -9q164 0 257 27.5t132 84.5t39 156v772h426z" />
    <glyph glyph-name="V" unicode="V" 
d="M23 1370h520l616 -909l643 909h500l-877 -1239q-114 -154 -274 -154q-164 0 -270 154z" />
    <glyph glyph-name="W" unicode="W" horiz-adv-x="2580" 
d="M1722 123l-219 387q-156 277 -221 412q-50 -114 -217 -410l-219 -389q-81 -146 -234 -146q-83 0 -146.5 48.5t-90.5 140.5l-348 1204h424l129 -477q68 -243 92 -377q64 137 192 379l185 344q50 94 103.5 124t137.5 30q86 0 141 -30t105 -124l182 -346q121 -223 193 -377
q28 131 94 377l129 477h414l-355 -1204q-27 -92 -90.5 -140.5t-146.5 -48.5q-151 0 -234 146z" />
    <glyph glyph-name="X" unicode="X" horiz-adv-x="2129" 
d="M1526 1370h549l-433 -395q-233 -211 -305 -266q35 -24 96.5 -79t235.5 -218l438 -412h-598l-467 453l-481 -453h-526l446 412q222 205 320 280q-68 49 -320 285l-420 393h588l436 -426z" />
    <glyph glyph-name="Y" unicode="Y" horiz-adv-x="2105" 
d="M1559 1370h532l-813 -917v-453h-426v455l-836 915h545l328 -381q6 -7 56 -63t83.5 -95t46.5 -57q35 51 172 217z" />
    <glyph glyph-name="Z" unicode="Z" horiz-adv-x="1841" 
d="M1825 352l-256 -352h-1299q-83 0 -139.5 46t-56.5 126q0 97 92 170l500 393q186 149 376 287q-99 -8 -471 -8h-548l270 356h1263q83 0 140 -46t57 -126q0 -46 -24.5 -91t-67.5 -77l-506 -401q-265 -209 -373 -285q136 8 545 8h498z" />
    <glyph glyph-name="bracketleft" unicode="[" horiz-adv-x="651" 
d="M555 1624v-248h-145v-1394h145v-246h-393v1888h393z" />
    <glyph glyph-name="backslash" unicode="\" horiz-adv-x="966" 
d="M0 1446h248l719 -1524h-265z" />
    <glyph glyph-name="bracketright" unicode="]" horiz-adv-x="653" 
d="M487 1624v-1888h-391v246h146v1394h-146v248h391z" />
    <glyph glyph-name="asciicircum" unicode="^" horiz-adv-x="1173" 
d="M752 1370l327 -764h-276l-213 531l-213 -531h-287l328 764h334z" />
    <glyph glyph-name="underscore" unicode="_" horiz-adv-x="1380" 
d="M1391 -86v-184h-1391v184h1391z" />
    <glyph glyph-name="grave" unicode="`" horiz-adv-x="804" 
d="M649 1634v-170l-610 80v232z" />
    <glyph glyph-name="a" unicode="a" 
d="M2302 0h-1593l256 352h344q177 0 243 -4q-34 45 -139 199l-246 362l-643 -909h-501l878 1239q110 154 275 154q164 0 270 -154z" />
    <glyph glyph-name="b" unicode="b" horiz-adv-x="1974" 
d="M1675 705q94 -28 154.5 -108t60.5 -198q0 -71 -16 -129t-56 -109.5t-102.5 -86t-159 -54.5t-223.5 -20h-1204v834h1212q52 0 85.5 21.5t33.5 70.5q0 47 -34 67.5t-85 20.5h-1212l287 356h907q252 0 395.5 -97t143.5 -282q0 -113 -53.5 -184.5t-133.5 -101.5zM1335 541
h-780v-189h780q131 0 131 97q0 92 -131 92z" />
    <glyph glyph-name="c" unicode="c" horiz-adv-x="1890" 
d="M911 352h961l-273 -352h-688q-175 0 -328.5 53.5t-262.5 146t-171.5 222t-62.5 276.5q0 197 107 351t294.5 237.5t423.5 83.5h961l-273 -356h-688q-173 0 -287 -93.5t-114 -240.5q0 -145 113 -236.5t288 -91.5z" />
    <glyph glyph-name="d" unicode="d" horiz-adv-x="1957" 
d="M1872 698q0 -147 -62.5 -276.5t-171.5 -222t-262.5 -146t-328.5 -53.5h-918v854h426v-502h492q178 0 291.5 90.5t113.5 237.5q0 144 -116 239t-289 95h-918l270 356h648q237 0 425 -85t294 -238.5t106 -348.5z" />
    <glyph glyph-name="e" unicode="e" horiz-adv-x="1736" 
d="M555 352h1165l-272 -352h-1319v1370h1587l-274 -356h-887v-164h1085l-243 -311h-842v-187z" />
    <glyph glyph-name="f" unicode="f" horiz-adv-x="1679" 
d="M129 1370h1536l-274 -356h-836v-178h1032l-258 -334h-774v-502h-426v1370z" />
    <glyph glyph-name="g" unicode="g" horiz-adv-x="1966" 
d="M721 551l254 305h876v-856h-940q-175 0 -328.5 53.5t-262.5 146t-171.5 222t-62.5 276.5q0 197 107 351t294.5 237.5t423.5 83.5h981l-274 -356h-707q-173 0 -288 -94.5t-115 -239.5q0 -148 112 -238t291 -90h519v199h-709z" />
    <glyph glyph-name="h" unicode="h" horiz-adv-x="1923" 
d="M1792 1370v-1370h-422v528h-815v-528h-426v1370h426v-485h815v485h422z" />
    <glyph glyph-name="i" unicode="i" horiz-adv-x="694" 
d="M559 1370v-1370h-424v1370h424z" />
    <glyph glyph-name="j" unicode="j" horiz-adv-x="1499" 
d="M299 352h236q241 0 335.5 61t94.5 210v747h426v-747q0 -623 -856 -623h-512z" />
    <glyph glyph-name="k" unicode="k" horiz-adv-x="1867" 
d="M1290 453l568 -453h-641l-414 360q-188 164 -254 230q6 -189 6 -197v-393h-426v1370h426v-317q0 -96 -8 -240q144 133 252 223l395 334h614l-524 -393q-258 -194 -354 -252q154 -105 360 -272z" />
    <glyph glyph-name="l" unicode="l" horiz-adv-x="1626" 
d="M553 352h1061l-275 -352h-1210v1370h424v-1018z" />
    <glyph glyph-name="m" unicode="m" horiz-adv-x="2578" 
d="M856 1247l219 -387q142 -248 221 -409q60 128 220 407l219 389q81 146 233 146q83 0 147 -48.5t91 -140.5l346 -1204h-422l-129 477q-64 232 -94 377q-72 -154 -191 -379l-184 -344q-50 -94 -104.5 -124t-139.5 -30t-139.5 30t-104.5 124l-184 346q-130 245 -192 377
q-16 -89 -93 -377l-129 -477h-415l354 1204q27 92 92 140.5t148 48.5q152 0 231 -146z" />
    <glyph glyph-name="n" unicode="n" horiz-adv-x="1871" 
d="M1518 -23q-90 0 -170 74l-840 754v-805h-385v1137q0 128 66 192t165 64q88 0 170 -74l840 -754v805h387v-1134q0 -129 -66.5 -194t-166.5 -65z" />
    <glyph glyph-name="o" unicode="o" horiz-adv-x="2174" 
d="M1087 1393q505 0 753.5 -172t248.5 -535t-249 -536t-753 -173q-505 0 -753 172.5t-248 536.5t247.5 535.5t753.5 171.5zM1087 334q135 0 225 8.5t162.5 30.5t112 62t60 101t20.5 150q0 64 -10 112.5t-30 86t-54.5 63.5t-78 43.5t-107 27t-134 13.5t-166.5 4
q-112 0 -191 -5.5t-147.5 -20t-111 -39t-73.5 -64t-43.5 -93.5t-12.5 -128t12.5 -128.5t43.5 -94t73.5 -64t110.5 -39.5t147.5 -20.5t191.5 -5.5z" />
    <glyph glyph-name="p" unicode="p" horiz-adv-x="2023" 
d="M1937 856q0 -230 -179 -368t-494 -138h-717v-350h-422v700h1180q97 0 151.5 43t54.5 115q0 73 -54.5 114.5t-151.5 41.5h-1180l281 356h860q313 0 492 -141t179 -373z" />
    <glyph glyph-name="q" unicode="q" horiz-adv-x="2174" 
d="M1399 588l715 -588h-1201q-176 0 -325.5 44.5t-262 129t-176 216t-63.5 296.5q0 364 247.5 535.5t753.5 171.5q505 0 753.5 -172t248.5 -535q0 -134 -59 -229h-455q92 68 92 229q0 64 -10 112.5t-30 86t-54.5 63.5t-78 43.5t-107 27t-134 13.5t-166.5 4q-112 0 -191 -5.5
t-147.5 -20t-111 -39t-73.5 -64t-43.5 -93.5t-12.5 -128q0 -182 102.5 -258t302.5 -76h88q93 0 166 -6q-68 45 -147 107l-174 135h553z" />
    <glyph glyph-name="r" unicode="r" horiz-adv-x="2095" 
d="M1821 266l252 -266h-568l-305 362h-651v-362h-424v700h1192q100 0 166.5 42.5t66.5 111.5q0 78 -61 119t-172 41h-1192l276 356h881q101 0 193.5 -13t188 -47t165.5 -87.5t114 -141t44 -200.5q0 -162 -96.5 -282t-262.5 -153q62 -46 193 -180z" />
    <glyph glyph-name="s" unicode="s" horiz-adv-x="1972" 
d="M653 823h746q252 0 383 -94t131 -280q0 -449 -588 -449h-1276l273 352h1036q76 0 110.5 23.5t34.5 77.5q0 52 -34.5 75t-110.5 23h-746q-256 0 -385 105t-129 288q0 202 143.5 314t444.5 112h1190l-272 -356h-951q-75 0 -110 -21.5t-35 -72.5q0 -52 35 -74.5t110 -22.5z
" />
    <glyph glyph-name="t" unicode="t" horiz-adv-x="1830" 
d="M274 1370h1557l-275 -356h-489v-1014h-424v1014h-643z" />
    <glyph glyph-name="u" unicode="u" horiz-adv-x="2019" 
d="M1909 1370v-772q0 -621 -854 -621q-489 0 -716.5 153.5t-227.5 467.5v772h421v-772q0 -64 13 -106t45 -75.5t92.5 -51t150 -26.5t222.5 -9q164 0 257 27.5t132 84.5t39 156v772h426z" />
    <glyph glyph-name="v" unicode="v" 
d="M23 1370h520l616 -909l643 909h500l-877 -1239q-114 -154 -274 -154q-164 0 -270 154z" />
    <glyph glyph-name="w" unicode="w" horiz-adv-x="2580" 
d="M1722 123l-219 387q-156 277 -221 412q-50 -114 -217 -410l-219 -389q-81 -146 -234 -146q-83 0 -146.5 48.5t-90.5 140.5l-348 1204h424l129 -477q68 -243 92 -377q64 137 192 379l185 344q50 94 103.5 124t137.5 30q86 0 141 -30t105 -124l182 -346q121 -223 193 -377
q28 131 94 377l129 477h414l-355 -1204q-27 -92 -90.5 -140.5t-146.5 -48.5q-151 0 -234 146z" />
    <glyph glyph-name="x" unicode="x" horiz-adv-x="2129" 
d="M1526 1370h549l-433 -395q-233 -211 -305 -266q35 -24 96.5 -79t235.5 -218l438 -412h-598l-467 453l-481 -453h-526l446 412q222 205 320 280q-68 49 -320 285l-420 393h588l436 -426z" />
    <glyph glyph-name="y" unicode="y" horiz-adv-x="2105" 
d="M1559 1370h532l-813 -917v-453h-426v455l-836 915h545l328 -381q6 -7 56 -63t83.5 -95t46.5 -57q35 51 172 217z" />
    <glyph glyph-name="z" unicode="z" horiz-adv-x="1841" 
d="M1825 352l-256 -352h-1299q-83 0 -139.5 46t-56.5 126q0 97 92 170l500 393q186 149 376 287q-99 -8 -471 -8h-548l270 356h1263q83 0 140 -46t57 -126q0 -46 -24.5 -91t-67.5 -77l-506 -401q-265 -209 -373 -285q136 8 545 8h498z" />
    <glyph glyph-name="braceleft" unicode="{" horiz-adv-x="739" 
d="M641 1624v-248q-123 0 -123 -45v-457q0 -154 -117 -200q117 -40 117 -201v-446q0 -45 123 -45v-246h-137q-234 0 -234 252v504q0 70 -125 73v217q125 3 125 72v516q0 254 234 254h137z" />
    <glyph glyph-name="bar" unicode="|" horiz-adv-x="612" 
d="M418 1546v-1749h-225v1749h225z" />
    <glyph glyph-name="braceright" unicode="}" horiz-adv-x="739" 
d="M469 1370v-516q0 -69 125 -72v-217q-125 -3 -125 -73v-504q0 -252 -233 -252h-140v246q125 0 125 45v446q0 161 117 201q-117 46 -117 200v457q0 45 -125 45v248h140q233 0 233 -254z" />
    <glyph glyph-name="asciitilde" unicode="~" horiz-adv-x="1161" 
d="M782 453q-51 0 -113 23.5t-111 52t-110.5 52t-111.5 23.5q-129 0 -254 -168v336q129 135 280 135q50 0 111.5 -23.5t110.5 -51t112.5 -51t116.5 -23.5q129 0 254 164v-336q-133 -133 -285 -133z" />
    <glyph glyph-name="nbspace" unicode="&#xa0;" horiz-adv-x="784" 
 />
    <glyph glyph-name="exclamdown" unicode="&#xa1;" horiz-adv-x="665" 
d="M553 0h-424v457l47 403h332l45 -403v-457zM567 1196q0 -93 -65.5 -147t-165.5 -54q-99 0 -164.5 54.5t-65.5 146.5q0 91 65.5 144t164.5 53q100 0 165.5 -53t65.5 -144z" />
    <glyph glyph-name="cent" unicode="&#xa2;" horiz-adv-x="1349" 
d="M852 1370v-182h430l-190 -252h-240v-465h430l-190 -248h-240v-223h-168v223q-250 0 -416 140.5t-166 351.5q0 138 75.5 246.5t208 167.5t298.5 59v182h168zM684 471v465q-121 0 -201 -66t-80 -168q0 -103 79.5 -167t201.5 -64z" />
    <glyph glyph-name="sterling" unicode="&#xa3;" horiz-adv-x="1665" 
d="M207 825h209v119q0 201 146 313.5t448 112.5h637l-273 -356h-397q-76 0 -111 -21.5t-35 -72.5v-95h445l-209 -264h-236v-209h818l-275 -352h-1311l275 352h78v209h-416z" />
    <glyph glyph-name="yen" unicode="&#xa5;" horiz-adv-x="2105" 
d="M1837 354v-229h-559v-125h-426v125h-543v229h543v101l-27 28h-516v230h307l-600 657h545l328 -381q6 -7 56 -63t83.5 -95t46.5 -57q35 51 172 217l312 379h532l-584 -657h330v-230h-532l-27 -30v-99h559z" />
    <glyph glyph-name="brokenbar" unicode="&#xa6;" horiz-adv-x="612" 
d="M418 -203h-225v674h225v-674zM418 1546v-635h-225v635h225z" />
    <glyph glyph-name="section" unicode="&#xa7;" horiz-adv-x="1972" 
d="M653 823h746q252 0 383 -94t131 -280q0 -177 -94 -271q98 -91 98 -252q0 -448 -588 -448h-1276l273 352h1036q76 0 110.5 23.5t34.5 76.5q0 52 -35 75.5t-110 23.5h-746q-256 0 -385 105t-129 288q0 167 99 256q-103 100 -103 266q0 202 143.5 314t444.5 112h1190
l-272 -356h-951q-75 0 -110 -21.5t-35 -72.5q0 -52 35 -74.5t110 -22.5zM657 301h705q67 0 104 46.5t37 105.5q0 52 -34.5 75t-110.5 23h-709q-64 0 -100.5 -48t-36.5 -106q0 -52 35 -74t110 -22z" />
    <glyph glyph-name="dieresis" unicode="&#xa8;" horiz-adv-x="880" 
d="M53 1649q0 71 49.5 112t124.5 41q76 0 126 -41t50 -112q0 -69 -50 -109.5t-126 -40.5q-74 0 -124 40.5t-50 109.5zM479 1649q0 71 50 112t124 41q76 0 126 -41t50 -112q0 -69 -50 -109.5t-126 -40.5q-73 0 -123.5 41t-50.5 109z" />
    <glyph glyph-name="copyright" unicode="&#xa9;" horiz-adv-x="1593" 
d="M791 467h239l-84 -111h-155q-152 0 -252.5 95.5t-100.5 238.5t99.5 232.5t253.5 89.5h239l-84 -113h-155q-95 0 -159.5 -61t-64.5 -156t63.5 -155t160.5 -60zM90 686q0 116 36 224.5t101.5 195.5t152.5 152.5t195.5 101t223.5 35.5q192 0 355 -94.5t258 -258t95 -356.5
q0 -144 -56 -275.5t-151 -226.5t-226 -151t-275 -56q-115 0 -223.5 36t-195.5 101.5t-152.5 152.5t-101.5 195.5t-36 223.5zM174 684q0 -128 49.5 -244.5t133.5 -200t200.5 -133t245.5 -49.5q170 0 314.5 83.5t228.5 228t84 315.5q0 170 -84 316t-228.5 231.5t-314.5 85.5
q-129 0 -245.5 -50.5t-200.5 -136t-133.5 -202t-49.5 -244.5z" />
    <glyph glyph-name="ordfeminine" unicode="&#xaa;" horiz-adv-x="1392" 
d="M1323 582h-874l141 194h186q100 0 137 -2q-16 19 -77 109l-136 198l-354 -499h-274l483 680q63 86 150 86q89 0 147 -86z" />
    <glyph glyph-name="guillemotleft" unicode="&#xab;" horiz-adv-x="933" 
d="M416 813l-232 -147l232 -152v-190l-357 241v187l357 256v-195zM850 813l-232 -147l232 -152v-190l-356 241v187l356 256v-195z" />
    <glyph glyph-name="registered" unicode="&#xae;" horiz-adv-x="1030" 
d="M512 1315q-152 0 -249 -99t-97 -225q0 -82 41 -156t122 -122.5t183 -48.5q149 0 258 96t109 231q0 123 -107.5 223.5t-259.5 100.5zM514 590q-183 0 -304.5 118.5t-121.5 282.5q0 80 32 153.5t87 128.5t135.5 87.5t171.5 32.5q185 0 308.5 -117t123.5 -285
q0 -106 -56.5 -198t-156.5 -147.5t-219 -55.5zM657 905l58 -59h-127l-70 80h-69v-80h-97v155h191q23 0 38 10t15 25q0 37 -53 37h-191l64 80h119q30 0 56 -5t51 -16.5t39.5 -34.5t14.5 -55q0 -37 -22 -63t-60 -33q4 -3 17 -16.5t26 -24.5z" />
    <glyph glyph-name="macron" unicode="&#xaf;" horiz-adv-x="804" 
d="M707 1706v-170h-611v170h611z" />
    <glyph glyph-name="degree" unicode="&#xb0;" horiz-adv-x="808" 
d="M410 1227q-148 0 -148 -148q0 -147 148 -147q149 0 149 143q0 152 -149 152zM410 1393q313 0 313 -314q0 -313 -313 -313q-314 0 -314 313q0 314 314 314z" />
    <glyph glyph-name="plusminus" unicode="&#xb1;" horiz-adv-x="1288" 
d="M1204 -4v-229h-1118v229h1118zM1204 811v-229h-446v-447h-230v447h-442v229h442v442h230v-442h446z" />
    <glyph glyph-name="twosuperior" unicode="&#xb2;" horiz-adv-x="1015" 
d="M106 1229l136 178h401q151 0 223 -56t72 -157q0 -91 -65 -144t-193 -53h-326q-71 0 -71 -51v-47h661l-137 -176h-729v221q0 189 258 189h326q71 0 71 49q0 26 -17.5 36.5t-53.5 10.5h-556z" />
    <glyph glyph-name="threesuperior" unicode="&#xb3;" horiz-adv-x="991" 
d="M39 723l133 176h469q66 0 66 45q0 25 -15.5 36t-50.5 11h-410l111 148h303q60 0 60 47q0 43 -60 43h-573l135 178h428q127 0 198.5 -49t71.5 -141q0 -56 -27 -93t-65 -49q47 -14 77 -54t30 -99q0 -94 -63.5 -146.5t-215.5 -52.5h-602z" />
    <glyph glyph-name="acute" unicode="&#xb4;" horiz-adv-x="804" 
d="M766 1776v-232l-610 -80v170z" />
    <glyph glyph-name="periodcentered" unicode="&#xb7;" horiz-adv-x="632" 
d="M86 690q0 93 65.5 147t163.5 54q100 0 166 -54t66 -147q0 -91 -66 -143.5t-166 -52.5q-99 0 -164 52.5t-65 143.5z" />
    <glyph glyph-name="cedilla" unicode="&#xb8;" horiz-adv-x="610" 
d="M133 -63h318l-170 -459h-148v459z" />
    <glyph glyph-name="onesuperior" unicode="&#xb9;" horiz-adv-x="514" 
d="M41 1229l127 178h252v-684h-213v506h-166z" />
    <glyph glyph-name="ordmasculine" unicode="&#xba;" horiz-adv-x="1312" 
d="M657 1348q278 0 414.5 -94.5t136.5 -295.5q0 -200 -137 -295.5t-414 -95.5q-279 0 -416 95.5t-137 295.5q0 201 137 295.5t416 94.5zM657 766q93 0 149 7t96.5 28t56.5 58.5t16 98.5q0 117 -68 155t-250 38q-184 0 -251.5 -37.5t-67.5 -155.5t67.5 -155t251.5 -37z" />
    <glyph glyph-name="guillemotright" unicode="&#xbb;" horiz-adv-x="933" 
d="M328 666l-234 147v195l359 -256v-187l-359 -241v190zM760 666l-232 147v195l357 -256v-187l-357 -241v190z" />
    <glyph glyph-name="onequarter" unicode="&#xbc;" horiz-adv-x="1896" 
d="M86 1229l127 178h252v-684h-213v506h-166zM1268 1446h172l-1092 -1524h-186zM1411 61h-444q-48 0 -76.5 28t-28.5 67q0 46 45 82l494 401q45 37 98 37q49 0 83 -32t34 -95v-318h194l-122 -170h-72v-79h-205v79zM1411 231v101q0 42 4 88q-19 -19 -74 -64l-75 -61
q-28 -24 -92 -68q58 4 116 4h121z" />
    <glyph glyph-name="onehalf" unicode="&#xbd;" horiz-adv-x="1945" 
d="M86 1229l127 178h252v-684h-213v506h-166zM1249 1446h172l-1091 -1524h-187zM1024 487l135 179h402q294 0 294 -213q0 -91 -65 -144t-193 -53h-325q-72 0 -72 -51v-47h662l-138 -176h-729v221q0 188 258 188h326q72 0 72 49q0 47 -72 47h-555z" />
    <glyph glyph-name="threequarters" unicode="&#xbe;" horiz-adv-x="2164" 
d="M86 723l133 176h469q66 0 66 45q0 25 -15.5 36t-50.5 11h-409l110 148h303q60 0 60 47q0 43 -60 43h-573l135 178h428q127 0 198.5 -49t71.5 -141q0 -56 -27 -93t-65 -49q47 -14 77 -54t30 -99q0 -94 -63.5 -146.5t-215.5 -52.5h-602zM1573 1446h172l-1092 -1524h-186z
M1679 61h-444q-48 0 -76.5 28t-28.5 67q0 45 46 82l493 401q45 37 98 37q49 0 83 -32t34 -95v-318h195l-123 -170h-72v-79h-205v79zM1679 231v101q0 42 4 88q-23 -24 -73 -64l-76 -61q-28 -24 -92 -68q58 4 117 4h120z" />
    <glyph glyph-name="questiondown" unicode="&#xbf;" horiz-adv-x="1521" 
d="M1499 356l-274 -356h-582q-301 0 -443.5 112t-142.5 314q0 184 128 288.5t384 104.5h207q41 0 41 33v8h350v-43q0 -134 -75.5 -202t-245.5 -68h-236q-75 0 -110 -22t-35 -74q0 -51 35 -73t110 -22h889zM1206 1196q0 -93 -65.5 -147t-165.5 -54q-99 0 -164.5 54.5
t-65.5 146.5q0 91 65.5 144t164.5 53q100 0 165.5 -53t65.5 -144z" />
    <glyph glyph-name="Agrave" unicode="&#xc0;" 
d="M2302 0h-1593l256 352h344q177 0 243 -4q-34 45 -139 199l-246 362l-643 -909h-501l878 1239q110 154 275 154q164 0 270 -154zM1409 1634v-170l-610 80v232z" />
    <glyph glyph-name="Aacute" unicode="&#xc1;" 
d="M2302 0h-1593l256 352h344q177 0 243 -4q-34 45 -139 199l-246 362l-643 -909h-501l878 1239q110 154 275 154q164 0 270 -154zM1526 1776v-232l-611 -80v170z" />
    <glyph glyph-name="Acircumflex" unicode="&#xc2;" 
d="M2302 0h-1593l256 352h344q177 0 243 -4q-34 45 -139 199l-246 362l-643 -909h-501l878 1239q110 154 275 154q164 0 270 -154zM1298 1776l191 -312h-203l-115 207h-18l-113 -207h-204l194 312h268z" />
    <glyph glyph-name="Atilde" unicode="&#xc3;" 
d="M2302 0h-1593l256 352h344q177 0 243 -4q-34 45 -139 199l-246 362l-643 -909h-501l878 1239q110 154 275 154q164 0 270 -154zM1311 1499q-52 0 -148 42t-149 42q-45 0 -87.5 -21t-70.5 -53v170q56 62 158 62q53 0 148.5 -43t148.5 -43q45 0 86 20.5t69 53.5v-168
q-54 -62 -155 -62z" />
    <glyph glyph-name="Adieresis" unicode="&#xc4;" 
d="M2302 0h-1593l256 352h344q177 0 243 -4q-34 45 -139 199l-246 362l-643 -909h-501l878 1239q110 154 275 154q164 0 270 -154zM774 1649q0 71 49.5 112t124.5 41q76 0 126 -41t50 -112q0 -69 -50 -109.5t-126 -40.5q-74 0 -124 40.5t-50 109.5zM1200 1649q0 71 50 112
t124 41q76 0 126 -41t50 -112q0 -69 -50 -109.5t-126 -40.5q-73 0 -123.5 41t-50.5 109z" />
    <glyph glyph-name="Aring" unicode="&#xc5;" 
d="M2302 0h-1593l256 352h344q177 0 243 -4q-34 45 -139 199l-246 362l-643 -909h-501l878 1239q110 154 275 154q164 0 270 -154zM1257 1788h-192q-39 0 -39 -37v-104q0 -37 39 -37h192q41 0 41 37v104q0 37 -41 37zM1458 1763v-129q0 -170 -213 -170h-168q-211 0 -211 170
v129q0 172 211 172h168q213 0 213 -172z" />
    <glyph glyph-name="AE" unicode="&#xc6;" horiz-adv-x="2953" 
d="M1157 1370h1776l-275 -356h-886v-164h1085l-242 -311h-843v-187h1167l-275 -352h-1316v1014h-109l-715 -1014h-501l862 1214q108 156 272 156z" />
    <glyph glyph-name="Ccedilla" unicode="&#xc7;" horiz-adv-x="1890" 
d="M911 352h961l-273 -352h-688q-175 0 -328.5 53.5t-262.5 146t-171.5 222t-62.5 276.5q0 197 107 351t294.5 237.5t423.5 83.5h961l-273 -356h-688q-173 0 -287 -93.5t-114 -240.5q0 -145 113 -236.5t288 -91.5zM911 -63h316l-168 -459h-148v459z" />
    <glyph glyph-name="Egrave" unicode="&#xc8;" horiz-adv-x="1736" 
d="M555 352h1165l-272 -352h-1319v1370h1587l-274 -356h-887v-164h1085l-243 -311h-842v-187zM1135 1634v-170l-611 80v232z" />
    <glyph glyph-name="Eacute" unicode="&#xc9;" horiz-adv-x="1736" 
d="M555 352h1165l-272 -352h-1319v1370h1587l-274 -356h-887v-164h1085l-243 -311h-842v-187zM1212 1776v-232l-610 -80v170z" />
    <glyph glyph-name="Ecircumflex" unicode="&#xca;" horiz-adv-x="1736" 
d="M555 352h1165l-272 -352h-1319v1370h1587l-274 -356h-887v-164h1085l-243 -311h-842v-187zM1024 1776l190 -312h-202l-115 207h-18l-113 -207h-205l195 312h268z" />
    <glyph glyph-name="Edieresis" unicode="&#xcb;" horiz-adv-x="1736" 
d="M555 352h1165l-272 -352h-1319v1370h1587l-274 -356h-887v-164h1085l-243 -311h-842v-187zM473 1649q0 71 49.5 112t124.5 41q76 0 126 -41t50 -112q0 -69 -50 -109.5t-126 -40.5q-74 0 -124 40.5t-50 109.5zM899 1649q0 71 50 112t124 41q76 0 126 -41t50 -112
q0 -69 -50 -109.5t-126 -40.5q-73 0 -123.5 41t-50.5 109z" />
    <glyph glyph-name="Igrave" unicode="&#xcc;" horiz-adv-x="694" 
d="M559 1370v-1370h-424v1370h424zM596 1634v-170l-610 80v232z" />
    <glyph glyph-name="Iacute" unicode="&#xcd;" horiz-adv-x="694" 
d="M559 1370v-1370h-424v1370h424zM713 1776v-232l-611 -80v170z" />
    <glyph glyph-name="Icircumflex" unicode="&#xce;" horiz-adv-x="694" 
d="M559 1370v-1370h-424v1370h424zM483 1776l191 -312h-203l-115 207h-18l-113 -207h-205l195 312h268z" />
    <glyph glyph-name="Idieresis" unicode="&#xcf;" horiz-adv-x="694" 
d="M559 1370v-1370h-424v1370h424zM-39 1649q0 71 49.5 112t124.5 41q76 0 126 -41t50 -112q0 -69 -50 -109.5t-126 -40.5q-74 0 -124 40.5t-50 109.5zM387 1649q0 71 50 112t124 41q76 0 126 -41t50 -112q0 -69 -50 -109.5t-126 -40.5q-73 0 -123.5 41t-50.5 109z" />
    <glyph glyph-name="Eth" unicode="&#xd0;" horiz-adv-x="2131" 
d="M242 850h981l-242 -311h-252v-187h492q178 0 291.5 90.5t113.5 237.5q0 144 -116 239t-289 95h-916l268 356h648q237 0 425 -85t294 -238.5t106 -348.5q0 -147 -62.5 -276.5t-171.5 -222t-262.5 -146t-328.5 -53.5h-916v539h-305z" />
    <glyph glyph-name="Ntilde" unicode="&#xd1;" horiz-adv-x="1871" 
d="M1518 -23q-90 0 -170 74l-840 754v-805h-385v1137q0 128 66 192t165 64q88 0 170 -74l840 -754v805h387v-1134q0 -129 -66.5 -194t-166.5 -65zM1077 1499q-52 0 -148 42t-149 42q-45 0 -87 -21t-70 -53v170q56 62 157 62q53 0 148.5 -43t148.5 -43q45 0 86.5 21t69.5 53
v-168q-54 -62 -156 -62z" />
    <glyph glyph-name="Ograve" unicode="&#xd2;" horiz-adv-x="2174" 
d="M1087 1393q505 0 753.5 -172t248.5 -535t-249 -536t-753 -173q-505 0 -753 172.5t-248 536.5t247.5 535.5t753.5 171.5zM1087 334q135 0 225 8.5t162.5 30.5t112 62t60 101t20.5 150q0 64 -10 112.5t-30 86t-54.5 63.5t-78 43.5t-107 27t-134 13.5t-166.5 4
q-112 0 -191 -5.5t-147.5 -20t-111 -39t-73.5 -64t-43.5 -93.5t-12.5 -128t12.5 -128.5t43.5 -94t73.5 -64t110.5 -39.5t147.5 -20.5t191.5 -5.5zM1333 1634v-170l-610 80v232z" />
    <glyph glyph-name="Oacute" unicode="&#xd3;" horiz-adv-x="2174" 
d="M1087 1393q505 0 753.5 -172t248.5 -535t-249 -536t-753 -173q-505 0 -753 172.5t-248 536.5t247.5 535.5t753.5 171.5zM1087 334q135 0 225 8.5t162.5 30.5t112 62t60 101t20.5 150q0 64 -10 112.5t-30 86t-54.5 63.5t-78 43.5t-107 27t-134 13.5t-166.5 4
q-112 0 -191 -5.5t-147.5 -20t-111 -39t-73.5 -64t-43.5 -93.5t-12.5 -128t12.5 -128.5t43.5 -94t73.5 -64t110.5 -39.5t147.5 -20.5t191.5 -5.5zM1450 1776v-232l-610 -80v170z" />
    <glyph glyph-name="Ocircumflex" unicode="&#xd4;" horiz-adv-x="2174" 
d="M1087 1393q505 0 753.5 -172t248.5 -535t-249 -536t-753 -173q-505 0 -753 172.5t-248 536.5t247.5 535.5t753.5 171.5zM1087 334q135 0 225 8.5t162.5 30.5t112 62t60 101t20.5 150q0 64 -10 112.5t-30 86t-54.5 63.5t-78 43.5t-107 27t-134 13.5t-166.5 4
q-112 0 -191 -5.5t-147.5 -20t-111 -39t-73.5 -64t-43.5 -93.5t-12.5 -128t12.5 -128.5t43.5 -94t73.5 -64t110.5 -39.5t147.5 -20.5t191.5 -5.5zM1223 1776l190 -312h-203l-114 207h-19l-112 -207h-205l194 312h269z" />
    <glyph glyph-name="Otilde" unicode="&#xd5;" horiz-adv-x="2174" 
d="M1087 1393q505 0 753.5 -172t248.5 -535t-249 -536t-753 -173q-505 0 -753 172.5t-248 536.5t247.5 535.5t753.5 171.5zM1087 334q135 0 225 8.5t162.5 30.5t112 62t60 101t20.5 150q0 64 -10 112.5t-30 86t-54.5 63.5t-78 43.5t-107 27t-134 13.5t-166.5 4
q-112 0 -191 -5.5t-147.5 -20t-111 -39t-73.5 -64t-43.5 -93.5t-12.5 -128t12.5 -128.5t43.5 -94t73.5 -64t110.5 -39.5t147.5 -20.5t191.5 -5.5zM1235 1499q-52 0 -148 42t-149 42q-45 0 -87.5 -21t-70.5 -53v170q56 62 158 62q53 0 148.5 -43t148.5 -43q45 0 86.5 21
t69.5 53v-168q-54 -62 -156 -62z" />
    <glyph glyph-name="Odieresis" unicode="&#xd6;" horiz-adv-x="2174" 
d="M1087 1393q505 0 753.5 -172t248.5 -535t-249 -536t-753 -173q-505 0 -753 172.5t-248 536.5t247.5 535.5t753.5 171.5zM1087 334q135 0 225 8.5t162.5 30.5t112 62t60 101t20.5 150q0 64 -10 112.5t-30 86t-54.5 63.5t-78 43.5t-107 27t-134 13.5t-166.5 4
q-112 0 -191 -5.5t-147.5 -20t-111 -39t-73.5 -64t-43.5 -93.5t-12.5 -128t12.5 -128.5t43.5 -94t73.5 -64t110.5 -39.5t147.5 -20.5t191.5 -5.5zM700 1649q0 71 49.5 112t124.5 41q76 0 126.5 -41t50.5 -112q0 -69 -50.5 -109.5t-126.5 -40.5q-74 0 -124 40.5t-50 109.5z
M1126 1649q0 71 50 112t124 41q76 0 126.5 -41t50.5 -112q0 -69 -50.5 -109.5t-126.5 -40.5q-73 0 -123.5 41t-50.5 109z" />
    <glyph glyph-name="multiply" unicode="&#xd7;" horiz-adv-x="1288" 
d="M1087 389l-163 -162l-314 316l-315 -314l-162 160l316 316l-314 315l162 160l313 -314l314 314l161 -162l-313 -313z" />
    <glyph glyph-name="Oslash" unicode="&#xd8;" horiz-adv-x="2174" 
d="M1087 1393q333 0 555 -74l154 147l105 -96l-117 -113q305 -173 305 -571q0 -363 -249 -536t-753 -173q-344 0 -559 76l-153 -149l-101 96l117 113q-305 171 -305 573q0 364 247.5 535.5t753.5 171.5zM1087 334q135 0 225 8.5t162.5 30.5t112 62t60 101t20.5 150
q0 123 -39 194.5t-127 108.5l-667 -645q87 -10 253 -10zM508 686q0 -124 38 -196t124 -109l667 645q-117 10 -250 10q-112 0 -191 -5.5t-147.5 -20t-111 -39t-73.5 -64t-43.5 -93.5t-12.5 -128z" />
    <glyph glyph-name="Ugrave" unicode="&#xd9;" horiz-adv-x="2019" 
d="M1909 1370v-772q0 -621 -854 -621q-489 0 -716.5 153.5t-227.5 467.5v772h421v-772q0 -64 13 -106t45 -75.5t92.5 -51t150 -26.5t222.5 -9q164 0 257 27.5t132 84.5t39 156v772h426zM1255 1634v-170l-610 80v232z" />
    <glyph glyph-name="Uacute" unicode="&#xda;" horiz-adv-x="2019" 
d="M1909 1370v-772q0 -621 -854 -621q-489 0 -716.5 153.5t-227.5 467.5v772h421v-772q0 -64 13 -106t45 -75.5t92.5 -51t150 -26.5t222.5 -9q164 0 257 27.5t132 84.5t39 156v772h426zM1372 1776v-232l-610 -80v170z" />
    <glyph glyph-name="Ucircumflex" unicode="&#xdb;" horiz-adv-x="2019" 
d="M1909 1370v-772q0 -621 -854 -621q-489 0 -716.5 153.5t-227.5 467.5v772h421v-772q0 -64 13 -106t45 -75.5t92.5 -51t150 -26.5t222.5 -9q164 0 257 27.5t132 84.5t39 156v772h426zM1145 1776l190 -312h-202l-115 207h-19l-112 -207h-205l195 312h268z" />
    <glyph glyph-name="Udieresis" unicode="&#xdc;" horiz-adv-x="2019" 
d="M1909 1370v-772q0 -621 -854 -621q-489 0 -716.5 153.5t-227.5 467.5v772h421v-772q0 -64 13 -106t45 -75.5t92.5 -51t150 -26.5t222.5 -9q164 0 257 27.5t132 84.5t39 156v772h426zM623 1649q0 71 49.5 112t124.5 41q76 0 126 -41t50 -112q0 -69 -50 -109.5t-126 -40.5
q-74 0 -124 40.5t-50 109.5zM1049 1649q0 71 50 112t124 41q76 0 126 -41t50 -112q0 -69 -50 -109.5t-126 -40.5q-73 0 -123.5 41t-50.5 109z" />
    <glyph glyph-name="Yacute" unicode="&#xdd;" horiz-adv-x="2105" 
d="M1559 1370h532l-813 -917v-453h-426v455l-836 915h545l328 -381q6 -7 56 -63t83.5 -95t46.5 -57q35 51 172 217zM1407 1776v-232l-610 -80v170z" />
    <glyph glyph-name="Thorn" unicode="&#xde;" horiz-adv-x="1961" 
d="M129 0v1370h424v-192h657q317 0 496.5 -137t179.5 -369q0 -231 -179.5 -371.5t-494.5 -140.5h-559l281 356h317q99 0 154 41.5t55 112.5q0 73 -55 116t-154 43h-698v-829h-424z" />
    <glyph glyph-name="germandbls" unicode="&#xdf;" horiz-adv-x="3946" 
d="M653 823h746q252 0 383 -94t131 -280q0 -449 -588 -449h-1276l273 352h1036q76 0 110.5 23.5t34.5 77.5q0 52 -34.5 75t-110.5 23h-746q-256 0 -385 105t-129 288q0 202 143.5 314t444.5 112h1190l-272 -356h-951q-75 0 -110 -21.5t-35 -72.5q0 -52 35 -74.5t110 -22.5z
M2626 823h745q252 0 383 -94t131 -280q0 -449 -588 -449h-1276l273 352h1036q76 0 110.5 23.5t34.5 77.5q0 52 -34.5 75t-110.5 23h-745q-256 0 -385 105t-129 288q0 202 143 314t444 112h1190l-272 -356h-950q-76 0 -111 -21.5t-35 -72.5q0 -52 35.5 -74.5t110.5 -22.5z
" />
    <glyph glyph-name="agrave" unicode="&#xe0;" 
d="M2302 0h-1593l256 352h344q177 0 243 -4q-34 45 -139 199l-246 362l-643 -909h-501l878 1239q110 154 275 154q164 0 270 -154zM1409 1634v-170l-610 80v232z" />
    <glyph glyph-name="aacute" unicode="&#xe1;" 
d="M2302 0h-1593l256 352h344q177 0 243 -4q-34 45 -139 199l-246 362l-643 -909h-501l878 1239q110 154 275 154q164 0 270 -154zM1526 1776v-232l-611 -80v170z" />
    <glyph glyph-name="acircumflex" unicode="&#xe2;" 
d="M2302 0h-1593l256 352h344q177 0 243 -4q-34 45 -139 199l-246 362l-643 -909h-501l878 1239q110 154 275 154q164 0 270 -154zM1298 1776l191 -312h-203l-115 207h-18l-113 -207h-204l194 312h268z" />
    <glyph glyph-name="atilde" unicode="&#xe3;" 
d="M2302 0h-1593l256 352h344q177 0 243 -4q-34 45 -139 199l-246 362l-643 -909h-501l878 1239q110 154 275 154q164 0 270 -154zM1311 1499q-52 0 -148 42t-149 42q-45 0 -87.5 -21t-70.5 -53v170q56 62 158 62q53 0 148.5 -43t148.5 -43q45 0 86 20.5t69 53.5v-168
q-54 -62 -155 -62z" />
    <glyph glyph-name="adieresis" unicode="&#xe4;" 
d="M2302 0h-1593l256 352h344q177 0 243 -4q-34 45 -139 199l-246 362l-643 -909h-501l878 1239q110 154 275 154q164 0 270 -154zM774 1649q0 71 49.5 112t124.5 41q76 0 126 -41t50 -112q0 -69 -50 -109.5t-126 -40.5q-74 0 -124 40.5t-50 109.5zM1200 1649q0 71 50 112
t124 41q76 0 126 -41t50 -112q0 -69 -50 -109.5t-126 -40.5q-73 0 -123.5 41t-50.5 109z" />
    <glyph glyph-name="aring" unicode="&#xe5;" 
d="M2302 0h-1593l256 352h344q177 0 243 -4q-34 45 -139 199l-246 362l-643 -909h-501l878 1239q110 154 275 154q164 0 270 -154zM1257 1788h-192q-39 0 -39 -37v-104q0 -37 39 -37h192q41 0 41 37v104q0 37 -41 37zM1458 1763v-129q0 -170 -213 -170h-168q-211 0 -211 170
v129q0 172 211 172h168q213 0 213 -172z" />
    <glyph glyph-name="ae" unicode="&#xe6;" horiz-adv-x="2953" 
d="M1157 1370h1776l-275 -356h-886v-164h1085l-242 -311h-843v-187h1167l-275 -352h-1316v1014h-109l-715 -1014h-501l862 1214q108 156 272 156z" />
    <glyph glyph-name="ccedilla" unicode="&#xe7;" horiz-adv-x="1890" 
d="M911 352h961l-273 -352h-688q-175 0 -328.5 53.5t-262.5 146t-171.5 222t-62.5 276.5q0 197 107 351t294.5 237.5t423.5 83.5h961l-273 -356h-688q-173 0 -287 -93.5t-114 -240.5q0 -145 113 -236.5t288 -91.5zM911 -63h316l-168 -459h-148v459z" />
    <glyph glyph-name="egrave" unicode="&#xe8;" horiz-adv-x="1736" 
d="M555 352h1165l-272 -352h-1319v1370h1587l-274 -356h-887v-164h1085l-243 -311h-842v-187zM1135 1634v-170l-611 80v232z" />
    <glyph glyph-name="eacute" unicode="&#xe9;" horiz-adv-x="1736" 
d="M555 352h1165l-272 -352h-1319v1370h1587l-274 -356h-887v-164h1085l-243 -311h-842v-187zM1212 1776v-232l-610 -80v170z" />
    <glyph glyph-name="ecircumflex" unicode="&#xea;" horiz-adv-x="1736" 
d="M555 352h1165l-272 -352h-1319v1370h1587l-274 -356h-887v-164h1085l-243 -311h-842v-187zM1024 1776l190 -312h-202l-115 207h-18l-113 -207h-205l195 312h268z" />
    <glyph glyph-name="edieresis" unicode="&#xeb;" horiz-adv-x="1736" 
d="M555 352h1165l-272 -352h-1319v1370h1587l-274 -356h-887v-164h1085l-243 -311h-842v-187zM473 1649q0 71 49.5 112t124.5 41q76 0 126 -41t50 -112q0 -69 -50 -109.5t-126 -40.5q-74 0 -124 40.5t-50 109.5zM899 1649q0 71 50 112t124 41q76 0 126 -41t50 -112
q0 -69 -50 -109.5t-126 -40.5q-73 0 -123.5 41t-50.5 109z" />
    <glyph glyph-name="igrave" unicode="&#xec;" horiz-adv-x="694" 
d="M559 1370v-1370h-424v1370h424zM596 1634v-170l-610 80v232z" />
    <glyph glyph-name="iacute" unicode="&#xed;" horiz-adv-x="694" 
d="M559 1370v-1370h-424v1370h424zM713 1776v-232l-611 -80v170z" />
    <glyph glyph-name="icircumflex" unicode="&#xee;" horiz-adv-x="694" 
d="M559 1370v-1370h-424v1370h424zM483 1776l191 -312h-203l-115 207h-18l-113 -207h-205l195 312h268z" />
    <glyph glyph-name="idieresis" unicode="&#xef;" horiz-adv-x="694" 
d="M559 1370v-1370h-424v1370h424zM-39 1649q0 71 49.5 112t124.5 41q76 0 126 -41t50 -112q0 -69 -50 -109.5t-126 -40.5q-74 0 -124 40.5t-50 109.5zM387 1649q0 71 50 112t124 41q76 0 126 -41t50 -112q0 -69 -50 -109.5t-126 -40.5q-73 0 -123.5 41t-50.5 109z" />
    <glyph glyph-name="eth" unicode="&#xf0;" horiz-adv-x="2131" 
d="M242 850h981l-242 -311h-252v-187h492q178 0 291.5 90.5t113.5 237.5q0 144 -116 239t-289 95h-916l268 356h648q237 0 425 -85t294 -238.5t106 -348.5q0 -147 -62.5 -276.5t-171.5 -222t-262.5 -146t-328.5 -53.5h-916v539h-305z" />
    <glyph glyph-name="ntilde" unicode="&#xf1;" horiz-adv-x="1871" 
d="M1518 -23q-90 0 -170 74l-840 754v-805h-385v1137q0 128 66 192t165 64q88 0 170 -74l840 -754v805h387v-1134q0 -129 -66.5 -194t-166.5 -65zM1077 1499q-52 0 -148 42t-149 42q-45 0 -87 -21t-70 -53v170q56 62 157 62q53 0 148.5 -43t148.5 -43q45 0 86.5 21t69.5 53
v-168q-54 -62 -156 -62z" />
    <glyph glyph-name="ograve" unicode="&#xf2;" horiz-adv-x="2174" 
d="M1087 1393q505 0 753.5 -172t248.5 -535t-249 -536t-753 -173q-505 0 -753 172.5t-248 536.5t247.5 535.5t753.5 171.5zM1087 334q135 0 225 8.5t162.5 30.5t112 62t60 101t20.5 150q0 64 -10 112.5t-30 86t-54.5 63.5t-78 43.5t-107 27t-134 13.5t-166.5 4
q-112 0 -191 -5.5t-147.5 -20t-111 -39t-73.5 -64t-43.5 -93.5t-12.5 -128t12.5 -128.5t43.5 -94t73.5 -64t110.5 -39.5t147.5 -20.5t191.5 -5.5zM1333 1634v-170l-610 80v232z" />
    <glyph glyph-name="oacute" unicode="&#xf3;" horiz-adv-x="2174" 
d="M1087 1393q505 0 753.5 -172t248.5 -535t-249 -536t-753 -173q-505 0 -753 172.5t-248 536.5t247.5 535.5t753.5 171.5zM1087 334q135 0 225 8.5t162.5 30.5t112 62t60 101t20.5 150q0 64 -10 112.5t-30 86t-54.5 63.5t-78 43.5t-107 27t-134 13.5t-166.5 4
q-112 0 -191 -5.5t-147.5 -20t-111 -39t-73.5 -64t-43.5 -93.5t-12.5 -128t12.5 -128.5t43.5 -94t73.5 -64t110.5 -39.5t147.5 -20.5t191.5 -5.5zM1450 1776v-232l-610 -80v170z" />
    <glyph glyph-name="ocircumflex" unicode="&#xf4;" horiz-adv-x="2174" 
d="M1087 1393q505 0 753.5 -172t248.5 -535t-249 -536t-753 -173q-505 0 -753 172.5t-248 536.5t247.5 535.5t753.5 171.5zM1087 334q135 0 225 8.5t162.5 30.5t112 62t60 101t20.5 150q0 64 -10 112.5t-30 86t-54.5 63.5t-78 43.5t-107 27t-134 13.5t-166.5 4
q-112 0 -191 -5.5t-147.5 -20t-111 -39t-73.5 -64t-43.5 -93.5t-12.5 -128t12.5 -128.5t43.5 -94t73.5 -64t110.5 -39.5t147.5 -20.5t191.5 -5.5zM1223 1776l190 -312h-203l-114 207h-19l-112 -207h-205l194 312h269z" />
    <glyph glyph-name="otilde" unicode="&#xf5;" horiz-adv-x="2174" 
d="M1087 1393q505 0 753.5 -172t248.5 -535t-249 -536t-753 -173q-505 0 -753 172.5t-248 536.5t247.5 535.5t753.5 171.5zM1087 334q135 0 225 8.5t162.5 30.5t112 62t60 101t20.5 150q0 64 -10 112.5t-30 86t-54.5 63.5t-78 43.5t-107 27t-134 13.5t-166.5 4
q-112 0 -191 -5.5t-147.5 -20t-111 -39t-73.5 -64t-43.5 -93.5t-12.5 -128t12.5 -128.5t43.5 -94t73.5 -64t110.5 -39.5t147.5 -20.5t191.5 -5.5zM1235 1499q-52 0 -148 42t-149 42q-45 0 -87.5 -21t-70.5 -53v170q56 62 158 62q53 0 148.5 -43t148.5 -43q45 0 86.5 21
t69.5 53v-168q-54 -62 -156 -62z" />
    <glyph glyph-name="odieresis" unicode="&#xf6;" horiz-adv-x="2174" 
d="M1087 1393q505 0 753.5 -172t248.5 -535t-249 -536t-753 -173q-505 0 -753 172.5t-248 536.5t247.5 535.5t753.5 171.5zM1087 334q135 0 225 8.5t162.5 30.5t112 62t60 101t20.5 150q0 64 -10 112.5t-30 86t-54.5 63.5t-78 43.5t-107 27t-134 13.5t-166.5 4
q-112 0 -191 -5.5t-147.5 -20t-111 -39t-73.5 -64t-43.5 -93.5t-12.5 -128t12.5 -128.5t43.5 -94t73.5 -64t110.5 -39.5t147.5 -20.5t191.5 -5.5zM700 1649q0 71 49.5 112t124.5 41q76 0 126.5 -41t50.5 -112q0 -69 -50.5 -109.5t-126.5 -40.5q-74 0 -124 40.5t-50 109.5z
M1126 1649q0 71 50 112t124 41q76 0 126.5 -41t50.5 -112q0 -69 -50.5 -109.5t-126.5 -40.5q-73 0 -123.5 41t-50.5 109z" />
    <glyph glyph-name="divide" unicode="&#xf7;" horiz-adv-x="1288" 
d="M1204 811v-229h-1118v229h1118zM414 1171q0 93 65.5 147t163.5 54q100 0 165.5 -54t65.5 -147q0 -91 -65.5 -143.5t-165.5 -52.5q-99 0 -164 52.5t-65 143.5zM414 207q0 93 65.5 147t163.5 54q100 0 165.5 -54t65.5 -147q0 -91 -65.5 -144t-165.5 -53q-99 0 -164 53
t-65 144z" />
    <glyph glyph-name="oslash" unicode="&#xf8;" horiz-adv-x="2174" 
d="M1087 1393q333 0 555 -74l154 147l105 -96l-117 -113q305 -173 305 -571q0 -363 -249 -536t-753 -173q-344 0 -559 76l-153 -149l-101 96l117 113q-305 171 -305 573q0 364 247.5 535.5t753.5 171.5zM1087 334q135 0 225 8.5t162.5 30.5t112 62t60 101t20.5 150
q0 123 -39 194.5t-127 108.5l-667 -645q87 -10 253 -10zM508 686q0 -124 38 -196t124 -109l667 645q-117 10 -250 10q-112 0 -191 -5.5t-147.5 -20t-111 -39t-73.5 -64t-43.5 -93.5t-12.5 -128z" />
    <glyph glyph-name="ugrave" unicode="&#xf9;" horiz-adv-x="2019" 
d="M1909 1370v-772q0 -621 -854 -621q-489 0 -716.5 153.5t-227.5 467.5v772h421v-772q0 -64 13 -106t45 -75.5t92.5 -51t150 -26.5t222.5 -9q164 0 257 27.5t132 84.5t39 156v772h426zM1255 1634v-170l-610 80v232z" />
    <glyph glyph-name="uacute" unicode="&#xfa;" horiz-adv-x="2019" 
d="M1909 1370v-772q0 -621 -854 -621q-489 0 -716.5 153.5t-227.5 467.5v772h421v-772q0 -64 13 -106t45 -75.5t92.5 -51t150 -26.5t222.5 -9q164 0 257 27.5t132 84.5t39 156v772h426zM1372 1776v-232l-610 -80v170z" />
    <glyph glyph-name="ucircumflex" unicode="&#xfb;" horiz-adv-x="2019" 
d="M1909 1370v-772q0 -621 -854 -621q-489 0 -716.5 153.5t-227.5 467.5v772h421v-772q0 -64 13 -106t45 -75.5t92.5 -51t150 -26.5t222.5 -9q164 0 257 27.5t132 84.5t39 156v772h426zM1145 1776l190 -312h-202l-115 207h-19l-112 -207h-205l195 312h268z" />
    <glyph glyph-name="udieresis" unicode="&#xfc;" horiz-adv-x="2019" 
d="M1909 1370v-772q0 -621 -854 -621q-489 0 -716.5 153.5t-227.5 467.5v772h421v-772q0 -64 13 -106t45 -75.5t92.5 -51t150 -26.5t222.5 -9q164 0 257 27.5t132 84.5t39 156v772h426zM623 1649q0 71 49.5 112t124.5 41q76 0 126 -41t50 -112q0 -69 -50 -109.5t-126 -40.5
q-74 0 -124 40.5t-50 109.5zM1049 1649q0 71 50 112t124 41q76 0 126 -41t50 -112q0 -69 -50 -109.5t-126 -40.5q-73 0 -123.5 41t-50.5 109z" />
    <glyph glyph-name="yacute" unicode="&#xfd;" horiz-adv-x="2105" 
d="M1559 1370h532l-813 -917v-453h-426v455l-836 915h545l328 -381q6 -7 56 -63t83.5 -95t46.5 -57q35 51 172 217zM1407 1776v-232l-610 -80v170z" />
    <glyph glyph-name="thorn" unicode="&#xfe;" horiz-adv-x="1961" 
d="M129 0v1370h424v-192h657q317 0 496.5 -137t179.5 -369q0 -231 -179.5 -371.5t-494.5 -140.5h-559l281 356h317q99 0 154 41.5t55 112.5q0 73 -55 116t-154 43h-698v-829h-424z" />
    <glyph glyph-name="ydieresis" unicode="&#xff;" horiz-adv-x="2105" 
d="M1559 1370h532l-813 -917v-453h-426v455l-836 915h545l328 -381q6 -7 56 -63t83.5 -95t46.5 -57q35 51 172 217zM686 1649q0 71 49.5 112t124.5 41q76 0 126 -41t50 -112q0 -69 -50 -109.5t-126 -40.5q-74 0 -124 40.5t-50 109.5zM1112 1649q0 71 50 112t124 41
q76 0 126 -41t50 -112q0 -69 -50 -109.5t-126 -40.5q-73 0 -123.5 41t-50.5 109z" />
    <glyph glyph-name="Amacron" unicode="&#x100;" 
d="M2302 0h-1593l256 352h344q177 0 243 -4q-34 45 -139 199l-246 362l-643 -909h-501l878 1239q110 154 275 154q164 0 270 -154zM1466 1706v-170h-610v170h610z" />
    <glyph glyph-name="amacron" unicode="&#x101;" 
d="M2302 0h-1593l256 352h344q177 0 243 -4q-34 45 -139 199l-246 362l-643 -909h-501l878 1239q110 154 275 154q164 0 270 -154zM1466 1706v-170h-610v170h610z" />
    <glyph glyph-name="Abreve" unicode="&#x102;" 
d="M2302 0h-1593l256 352h344q177 0 243 -4q-34 45 -139 199l-246 362l-643 -909h-501l878 1239q110 154 275 154q164 0 270 -154zM1286 1776h203q0 -34 -8 -73t-28 -82.5t-49 -77.5t-75 -56.5t-102 -22.5h-127q-56 0 -102 22.5t-75.5 57t-49.5 77t-28.5 82t-8.5 73.5h204
q0 -26 5.5 -55.5t17.5 -60.5t36 -51t56 -20h29q37 0 61.5 35.5t32.5 75t8 76.5z" />
    <glyph glyph-name="abreve" unicode="&#x103;" 
d="M2302 0h-1593l256 352h344q177 0 243 -4q-34 45 -139 199l-246 362l-643 -909h-501l878 1239q110 154 275 154q164 0 270 -154zM1286 1776h203q0 -34 -8 -73t-28 -82.5t-49 -77.5t-75 -56.5t-102 -22.5h-127q-56 0 -102 22.5t-75.5 57t-49.5 77t-28.5 82t-8.5 73.5h204
q0 -26 5.5 -55.5t17.5 -60.5t36 -51t56 -20h29q37 0 61.5 35.5t32.5 75t8 76.5z" />
    <glyph glyph-name="Aogonek" unicode="&#x104;" 
d="M2302 -250v-262h-213q-111 0 -177.5 51.5t-66.5 126.5q0 98 103 180l188 154h-1427l256 352h344q177 0 243 -4q-34 45 -139 199l-246 362l-643 -909h-501l878 1239q110 154 275 154q164 0 270 -154l856 -1239l-223 -180q-21 -18 -21 -37q0 -14 12 -23.5t33 -9.5h199z" />
    <glyph glyph-name="aogonek" unicode="&#x105;" 
d="M2302 -250v-262h-213q-111 0 -177.5 51.5t-66.5 126.5q0 98 103 180l188 154h-1427l256 352h344q177 0 243 -4q-34 45 -139 199l-246 362l-643 -909h-501l878 1239q110 154 275 154q164 0 270 -154l856 -1239l-223 -180q-21 -18 -21 -37q0 -14 12 -23.5t33 -9.5h199z" />
    <glyph glyph-name="Cacute" unicode="&#x106;" horiz-adv-x="1890" 
d="M911 352h961l-273 -352h-688q-175 0 -328.5 53.5t-262.5 146t-171.5 222t-62.5 276.5q0 197 107 351t294.5 237.5t423.5 83.5h961l-273 -356h-688q-173 0 -287 -93.5t-114 -240.5q0 -145 113 -236.5t288 -91.5zM1405 1776v-232l-610 -80v170z" />
    <glyph glyph-name="cacute" unicode="&#x107;" horiz-adv-x="1890" 
d="M911 352h961l-273 -352h-688q-175 0 -328.5 53.5t-262.5 146t-171.5 222t-62.5 276.5q0 197 107 351t294.5 237.5t423.5 83.5h961l-273 -356h-688q-173 0 -287 -93.5t-114 -240.5q0 -145 113 -236.5t288 -91.5zM1405 1776v-232l-610 -80v170z" />
    <glyph glyph-name="Cdotaccent" unicode="&#x10a;" horiz-adv-x="1890" 
d="M911 352h961l-273 -352h-688q-175 0 -328.5 53.5t-262.5 146t-171.5 222t-62.5 276.5q0 197 107 351t294.5 237.5t423.5 83.5h961l-273 -356h-688q-173 0 -287 -93.5t-114 -240.5q0 -145 113 -236.5t288 -91.5zM887 1649q0 71 49.5 112t124.5 41q76 0 126 -41t50 -112
q0 -69 -50 -109.5t-126 -40.5q-74 0 -124 40.5t-50 109.5z" />
    <glyph glyph-name="cdotaccent" unicode="&#x10b;" horiz-adv-x="1890" 
d="M911 352h961l-273 -352h-688q-175 0 -328.5 53.5t-262.5 146t-171.5 222t-62.5 276.5q0 197 107 351t294.5 237.5t423.5 83.5h961l-273 -356h-688q-173 0 -287 -93.5t-114 -240.5q0 -145 113 -236.5t288 -91.5zM887 1649q0 71 49.5 112t124.5 41q76 0 126 -41t50 -112
q0 -69 -50 -109.5t-126 -40.5q-74 0 -124 40.5t-50 109.5z" />
    <glyph glyph-name="Ccaron" unicode="&#x10c;" horiz-adv-x="1890" 
d="M911 352h961l-273 -352h-688q-175 0 -328.5 53.5t-262.5 146t-171.5 222t-62.5 276.5q0 197 107 351t294.5 237.5t423.5 83.5h961l-273 -356h-688q-173 0 -287 -93.5t-114 -240.5q0 -145 113 -236.5t288 -91.5zM909 1464l-192 312h205l114 -207h19l112 207h203l-192 -312
h-269z" />
    <glyph glyph-name="ccaron" unicode="&#x10d;" horiz-adv-x="1890" 
d="M911 352h961l-273 -352h-688q-175 0 -328.5 53.5t-262.5 146t-171.5 222t-62.5 276.5q0 197 107 351t294.5 237.5t423.5 83.5h961l-273 -356h-688q-173 0 -287 -93.5t-114 -240.5q0 -145 113 -236.5t288 -91.5zM909 1464l-192 312h205l114 -207h19l112 207h203l-192 -312
h-269z" />
    <glyph glyph-name="Dcaron" unicode="&#x10e;" horiz-adv-x="1957" 
d="M1872 698q0 -147 -62.5 -276.5t-171.5 -222t-262.5 -146t-328.5 -53.5h-918v854h426v-502h492q178 0 291.5 90.5t113.5 237.5q0 144 -116 239t-289 95h-918l270 356h648q237 0 425 -85t294 -238.5t106 -348.5zM709 1464l-193 312h205l115 -207h18l113 207h202l-192 -312
h-268z" />
    <glyph glyph-name="dcaron" unicode="&#x10f;" horiz-adv-x="1957" 
d="M1872 698q0 -147 -62.5 -276.5t-171.5 -222t-262.5 -146t-328.5 -53.5h-918v854h426v-502h492q178 0 291.5 90.5t113.5 237.5q0 144 -116 239t-289 95h-918l270 356h648q237 0 425 -85t294 -238.5t106 -348.5zM709 1464l-193 312h205l115 -207h18l113 207h202l-192 -312
h-268z" />
    <glyph glyph-name="Dcroat" unicode="&#x110;" horiz-adv-x="2131" 
d="M242 850h981l-242 -311h-252v-187h492q178 0 291.5 90.5t113.5 237.5q0 144 -116 239t-289 95h-916l268 356h648q237 0 425 -85t294 -238.5t106 -348.5q0 -147 -62.5 -276.5t-171.5 -222t-262.5 -146t-328.5 -53.5h-916v539h-305z" />
    <glyph glyph-name="dcroat" unicode="&#x111;" horiz-adv-x="2131" 
d="M242 850h981l-242 -311h-252v-187h492q178 0 291.5 90.5t113.5 237.5q0 144 -116 239t-289 95h-916l268 356h648q237 0 425 -85t294 -238.5t106 -348.5q0 -147 -62.5 -276.5t-171.5 -222t-262.5 -146t-328.5 -53.5h-916v539h-305z" />
    <glyph glyph-name="Emacron" unicode="&#x112;" horiz-adv-x="1736" 
d="M555 352h1165l-272 -352h-1319v1370h1587l-274 -356h-887v-164h1085l-243 -311h-842v-187zM1171 1706v-170h-610v170h610z" />
    <glyph glyph-name="emacron" unicode="&#x113;" horiz-adv-x="1736" 
d="M555 352h1165l-272 -352h-1319v1370h1587l-274 -356h-887v-164h1085l-243 -311h-842v-187zM1171 1706v-170h-610v170h610z" />
    <glyph glyph-name="Edotaccent" unicode="&#x116;" horiz-adv-x="1736" 
d="M555 352h1165l-272 -352h-1319v1370h1587l-274 -356h-887v-164h1085l-243 -311h-842v-187zM727 1649q0 71 49.5 112t124.5 41q76 0 126 -41t50 -112q0 -69 -50 -109.5t-126 -40.5q-74 0 -124 40.5t-50 109.5z" />
    <glyph glyph-name="edotaccent" unicode="&#x117;" horiz-adv-x="1736" 
d="M555 352h1165l-272 -352h-1319v1370h1587l-274 -356h-887v-164h1085l-243 -311h-842v-187zM727 1649q0 71 49.5 112t124.5 41q76 0 126 -41t50 -112q0 -69 -50 -109.5t-126 -40.5q-74 0 -124 40.5t-50 109.5z" />
    <glyph glyph-name="Eogonek" unicode="&#x118;" horiz-adv-x="1736" 
d="M1528 -250v-262h-187q-110 0 -176.5 51.5t-66.5 126.5q0 45 17 86t59 94l118 154h-1163v1370h1587l-274 -356h-887v-164h1085l-243 -311h-842v-187h1165l-415 -532q-15 -20 -15 -37q0 -14 12 -23.5t33 -9.5h193z" />
    <glyph glyph-name="eogonek" unicode="&#x119;" horiz-adv-x="1736" 
d="M1528 -250v-262h-187q-110 0 -176.5 51.5t-66.5 126.5q0 45 17 86t59 94l118 154h-1163v1370h1587l-274 -356h-887v-164h1085l-243 -311h-842v-187h1165l-415 -532q-15 -20 -15 -37q0 -14 12 -23.5t33 -9.5h193z" />
    <glyph glyph-name="Ecaron" unicode="&#x11a;" horiz-adv-x="1736" 
d="M555 352h1165l-272 -352h-1319v1370h1587l-274 -356h-887v-164h1085l-243 -311h-842v-187zM752 1464l-193 312h205l115 -207h18l113 207h202l-192 -312h-268z" />
    <glyph glyph-name="ecaron" unicode="&#x11b;" horiz-adv-x="1736" 
d="M555 352h1165l-272 -352h-1319v1370h1587l-274 -356h-887v-164h1085l-243 -311h-842v-187zM752 1464l-193 312h205l115 -207h18l113 207h202l-192 -312h-268z" />
    <glyph glyph-name="Gbreve" unicode="&#x11e;" horiz-adv-x="1966" 
d="M721 551l254 305h876v-856h-940q-175 0 -328.5 53.5t-262.5 146t-171.5 222t-62.5 276.5q0 197 107 351t294.5 237.5t423.5 83.5h981l-274 -356h-707q-173 0 -288 -94.5t-115 -239.5q0 -148 112 -238t291 -90h519v199h-709zM1167 1776h203q0 -34 -8 -73t-28 -82.5
t-49 -77.5t-75 -56.5t-102 -22.5h-127q-56 0 -102 22.5t-75.5 57t-49.5 77t-28.5 82t-8.5 73.5h205q0 -26 5.5 -55.5t17.5 -60.5t35.5 -51t55.5 -20h29q37 0 61.5 35.5t32.5 75t8 76.5z" />
    <glyph glyph-name="gbreve" unicode="&#x11f;" horiz-adv-x="1966" 
d="M721 551l254 305h876v-856h-940q-175 0 -328.5 53.5t-262.5 146t-171.5 222t-62.5 276.5q0 197 107 351t294.5 237.5t423.5 83.5h981l-274 -356h-707q-173 0 -288 -94.5t-115 -239.5q0 -148 112 -238t291 -90h519v199h-709zM1167 1776h203q0 -34 -8 -73t-28 -82.5
t-49 -77.5t-75 -56.5t-102 -22.5h-127q-56 0 -102 22.5t-75.5 57t-49.5 77t-28.5 82t-8.5 73.5h205q0 -26 5.5 -55.5t17.5 -60.5t35.5 -51t55.5 -20h29q37 0 61.5 35.5t32.5 75t8 76.5z" />
    <glyph glyph-name="Gdotaccent" unicode="&#x120;" horiz-adv-x="1966" 
d="M721 551l254 305h876v-856h-940q-175 0 -328.5 53.5t-262.5 146t-171.5 222t-62.5 276.5q0 197 107 351t294.5 237.5t423.5 83.5h981l-274 -356h-707q-173 0 -288 -94.5t-115 -239.5q0 -148 112 -238t291 -90h519v199h-709zM887 1649q0 71 49.5 112t124.5 41
q76 0 126 -41t50 -112q0 -69 -50 -109.5t-126 -40.5q-74 0 -124 40.5t-50 109.5z" />
    <glyph glyph-name="gdotaccent" unicode="&#x121;" horiz-adv-x="1966" 
d="M721 551l254 305h876v-856h-940q-175 0 -328.5 53.5t-262.5 146t-171.5 222t-62.5 276.5q0 197 107 351t294.5 237.5t423.5 83.5h981l-274 -356h-707q-173 0 -288 -94.5t-115 -239.5q0 -148 112 -238t291 -90h519v199h-709zM887 1649q0 71 49.5 112t124.5 41
q76 0 126 -41t50 -112q0 -69 -50 -109.5t-126 -40.5q-74 0 -124 40.5t-50 109.5z" />
    <glyph glyph-name="Gcommaaccent" unicode="&#x122;" horiz-adv-x="1966" 
d="M721 551l254 305h876v-856h-940q-175 0 -328.5 53.5t-262.5 146t-171.5 222t-62.5 276.5q0 197 107 351t294.5 237.5t423.5 83.5h981l-274 -356h-707q-173 0 -288 -94.5t-115 -239.5q0 -148 112 -238t291 -90h519v199h-709zM958 -63h318l-170 -459h-148v459z" />
    <glyph glyph-name="gcommaaccent" unicode="&#x123;" horiz-adv-x="1966" 
d="M721 551l254 305h876v-856h-940q-175 0 -328.5 53.5t-262.5 146t-171.5 222t-62.5 276.5q0 197 107 351t294.5 237.5t423.5 83.5h981l-274 -356h-707q-173 0 -288 -94.5t-115 -239.5q0 -148 112 -238t291 -90h519v199h-709zM958 -63h318l-170 -459h-148v459z" />
    <glyph glyph-name="Hbar" unicode="&#x126;" horiz-adv-x="1923" 
d="M1792 1370v-1370h-422v528h-815v-528h-426v1370h426v-149h815v149h422zM555 885h815v188h-815v-188z" />
    <glyph glyph-name="hbar" unicode="&#x127;" horiz-adv-x="1923" 
d="M1792 1370v-1370h-422v528h-815v-528h-426v1370h426v-149h815v149h422zM555 885h815v188h-815v-188z" />
    <glyph glyph-name="uni012A" unicode="&#x12a;" horiz-adv-x="694" 
d="M559 1370v-1370h-424v1370h424zM653 1706v-170h-610v170h610z" />
    <glyph glyph-name="imacron" unicode="&#x12b;" horiz-adv-x="694" 
d="M559 1370v-1370h-424v1370h424zM653 1706v-170h-610v170h610z" />
    <glyph glyph-name="Ibreve" unicode="&#x12c;" horiz-adv-x="694" 
d="M559 1370v-1370h-424v1370h424zM471 1776h203q0 -34 -8 -73t-28 -82.5t-49 -77.5t-75 -56.5t-102 -22.5h-127q-56 0 -102.5 22.5t-75.5 57t-49.5 77t-29 82t-8.5 73.5h205q0 -26 5.5 -55.5t17.5 -60.5t36 -51t56 -20h29q37 0 61.5 35.5t32.5 75t8 76.5z" />
    <glyph glyph-name="ibreve" unicode="&#x12d;" horiz-adv-x="694" 
d="M559 1370v-1370h-424v1370h424zM471 1776h203q0 -34 -8 -73t-28 -82.5t-49 -77.5t-75 -56.5t-102 -22.5h-127q-56 0 -102.5 22.5t-75.5 57t-49.5 77t-29 82t-8.5 73.5h205q0 -26 5.5 -55.5t17.5 -60.5t36 -51t56 -20h29q37 0 61.5 35.5t32.5 75t8 76.5z" />
    <glyph glyph-name="Iogonek" unicode="&#x12e;" horiz-adv-x="694" 
d="M559 -250v-262h-215q-109 0 -176.5 52t-67.5 126q0 98 103 180l188 154h-256v1370h424v-1370l-223 -180q-23 -17 -23 -37q0 -14 12 -23.5t33 -9.5h201z" />
    <glyph glyph-name="iogonek" unicode="&#x12f;" horiz-adv-x="694" 
d="M559 -250v-262h-215q-109 0 -176.5 52t-67.5 126q0 98 103 180l188 154h-256v1370h424v-1370l-223 -180q-23 -17 -23 -37q0 -14 12 -23.5t33 -9.5h201z" />
    <glyph glyph-name="Idotaccent" unicode="&#x130;" horiz-adv-x="694" 
d="M559 1370v-1370h-424v1370h424zM174 1649q0 71 49.5 112t124.5 41q76 0 126 -41t50 -112q0 -69 -50 -109.5t-126 -40.5q-74 0 -124 40.5t-50 109.5z" />
    <glyph glyph-name="dotlessi" unicode="&#x131;" horiz-adv-x="694" 
d="M559 1370v-1370h-424v1370h424z" />
    <glyph glyph-name="IJ" unicode="&#x132;" horiz-adv-x="2193" 
d="M559 1370v-1370h-424v1370h424zM993 352h236q241 0 335.5 61t94.5 210v747h426v-747q0 -623 -856 -623h-512z" />
    <glyph glyph-name="ij" unicode="&#x133;" horiz-adv-x="2193" 
d="M559 1370v-1370h-424v1370h424zM993 352h236q241 0 335.5 61t94.5 210v747h426v-747q0 -623 -856 -623h-512z" />
    <glyph glyph-name="Kcommaaccent" unicode="&#x136;" horiz-adv-x="1867" 
d="M1290 453l568 -453h-641l-414 360q-188 164 -254 230q6 -189 6 -197v-393h-426v1370h426v-317q0 -96 -8 -240q144 133 252 223l395 334h614l-524 -393q-258 -194 -354 -252q154 -105 360 -272zM715 -63h317l-170 -459h-147v459z" />
    <glyph glyph-name="kcommaaccent" unicode="&#x137;" horiz-adv-x="1867" 
d="M1290 453l568 -453h-641l-414 360q-188 164 -254 230q6 -189 6 -197v-393h-426v1370h426v-317q0 -96 -8 -240q144 133 252 223l395 334h614l-524 -393q-258 -194 -354 -252q154 -105 360 -272zM715 -63h317l-170 -459h-147v459z" />
    <glyph glyph-name="Lacute" unicode="&#x139;" horiz-adv-x="1626" 
d="M553 352h1061l-275 -352h-1210v1370h424v-1018zM748 1776v-232l-611 -80v170z" />
    <glyph glyph-name="lacute" unicode="&#x13a;" horiz-adv-x="1626" 
d="M553 352h1061l-275 -352h-1210v1370h424v-1018zM748 1776v-232l-611 -80v170z" />
    <glyph glyph-name="Lcommaaccent" unicode="&#x13b;" horiz-adv-x="1626" 
d="M553 352h1061l-275 -352h-1210v1370h424v-1018zM557 -63h317l-169 -459h-148v459z" />
    <glyph glyph-name="lcommaaccent" unicode="&#x13c;" horiz-adv-x="1626" 
d="M553 352h1061l-275 -352h-1210v1370h424v-1018zM557 -63h317l-169 -459h-148v459z" />
    <glyph glyph-name="Lcaron" unicode="&#x13d;" horiz-adv-x="1626" 
d="M553 352h1061l-275 -352h-1210v1370h424v-1018zM848 1370h379l-203 -549h-176v549z" />
    <glyph glyph-name="lcaron" unicode="&#x13e;" horiz-adv-x="1626" 
d="M553 352h1061l-275 -352h-1210v1370h424v-1018zM848 1370h379l-203 -549h-176v549z" />
    <glyph glyph-name="Lslash" unicode="&#x141;" horiz-adv-x="1626" 
d="M553 352h1061l-275 -352h-1210v1370h424v-477h670l-242 -309h-428v-232z" />
    <glyph glyph-name="lslash" unicode="&#x142;" horiz-adv-x="1626" 
d="M553 352h1061l-275 -352h-1210v1370h424v-477h670l-242 -309h-428v-232z" />
    <glyph glyph-name="Nacute" unicode="&#x143;" horiz-adv-x="1871" 
d="M1518 -23q-90 0 -170 74l-840 754v-805h-385v1137q0 128 66 192t165 64q88 0 170 -74l840 -754v805h387v-1134q0 -129 -66.5 -194t-166.5 -65zM1260 1776v-232l-611 -80v170z" />
    <glyph glyph-name="nacute" unicode="&#x144;" horiz-adv-x="1871" 
d="M1518 -23q-90 0 -170 74l-840 754v-805h-385v1137q0 128 66 192t165 64q88 0 170 -74l840 -754v805h387v-1134q0 -129 -66.5 -194t-166.5 -65zM1260 1776v-232l-611 -80v170z" />
    <glyph glyph-name="Ncommaaccent" unicode="&#x145;" horiz-adv-x="1871" 
d="M1518 -23q-90 0 -170 74l-840 754v-805h-385v1137q0 128 66 192t165 64q88 0 170 -74l840 -754v805h387v-1134q0 -129 -66.5 -194t-166.5 -65zM719 -63h317l-170 -459h-147v459z" />
    <glyph glyph-name="ncommaaccent" unicode="&#x146;" horiz-adv-x="1871" 
d="M1518 -23q-90 0 -170 74l-840 754v-805h-385v1137q0 128 66 192t165 64q88 0 170 -74l840 -754v805h387v-1134q0 -129 -66.5 -194t-166.5 -65zM719 -63h317l-170 -459h-147v459z" />
    <glyph glyph-name="Ncaron" unicode="&#x147;" horiz-adv-x="1871" 
d="M1518 -23q-90 0 -170 74l-840 754v-805h-385v1137q0 128 66 192t165 64q88 0 170 -74l840 -754v805h387v-1134q0 -129 -66.5 -194t-166.5 -65zM801 1464l-193 312h205l115 -207h18l113 207h203l-193 -312h-268z" />
    <glyph glyph-name="ncaron" unicode="&#x148;" horiz-adv-x="1871" 
d="M1518 -23q-90 0 -170 74l-840 754v-805h-385v1137q0 128 66 192t165 64q88 0 170 -74l840 -754v805h387v-1134q0 -129 -66.5 -194t-166.5 -65zM801 1464l-193 312h205l115 -207h18l113 207h203l-193 -312h-268z" />
    <glyph glyph-name="Eng" unicode="&#x14a;" horiz-adv-x="1871" 
d="M858 -168h37q219 0 330.5 48t132.5 159l-850 766v-805h-385v1137q0 128 66 192t165 64q88 0 170 -74l840 -754v805h387v-1270q0 -622 -856 -622h-311z" />
    <glyph glyph-name="eng" unicode="&#x14b;" horiz-adv-x="1871" 
d="M858 -168h37q219 0 330.5 48t132.5 159l-850 766v-805h-385v1137q0 128 66 192t165 64q88 0 170 -74l840 -754v805h387v-1270q0 -622 -856 -622h-311z" />
    <glyph glyph-name="Omacron" unicode="&#x14c;" horiz-adv-x="2174" 
d="M1087 1393q505 0 753.5 -172t248.5 -535t-249 -536t-753 -173q-505 0 -753 172.5t-248 536.5t247.5 535.5t753.5 171.5zM1087 334q135 0 225 8.5t162.5 30.5t112 62t60 101t20.5 150q0 64 -10 112.5t-30 86t-54.5 63.5t-78 43.5t-107 27t-134 13.5t-166.5 4
q-112 0 -191 -5.5t-147.5 -20t-111 -39t-73.5 -64t-43.5 -93.5t-12.5 -128t12.5 -128.5t43.5 -94t73.5 -64t110.5 -39.5t147.5 -20.5t191.5 -5.5zM1391 1706v-170h-611v170h611z" />
    <glyph glyph-name="omacron" unicode="&#x14d;" horiz-adv-x="2174" 
d="M1087 1393q505 0 753.5 -172t248.5 -535t-249 -536t-753 -173q-505 0 -753 172.5t-248 536.5t247.5 535.5t753.5 171.5zM1087 334q135 0 225 8.5t162.5 30.5t112 62t60 101t20.5 150q0 64 -10 112.5t-30 86t-54.5 63.5t-78 43.5t-107 27t-134 13.5t-166.5 4
q-112 0 -191 -5.5t-147.5 -20t-111 -39t-73.5 -64t-43.5 -93.5t-12.5 -128t12.5 -128.5t43.5 -94t73.5 -64t110.5 -39.5t147.5 -20.5t191.5 -5.5zM1391 1706v-170h-611v170h611z" />
    <glyph glyph-name="Ohungarumlaut" unicode="&#x150;" horiz-adv-x="2174" 
d="M1087 1393q505 0 753.5 -172t248.5 -535t-249 -536t-753 -173q-505 0 -753 172.5t-248 536.5t247.5 535.5t753.5 171.5zM1087 334q135 0 225 8.5t162.5 30.5t112 62t60 101t20.5 150q0 64 -10 112.5t-30 86t-54.5 63.5t-78 43.5t-107 27t-134 13.5t-166.5 4
q-112 0 -191 -5.5t-147.5 -20t-111 -39t-73.5 -64t-43.5 -93.5t-12.5 -128t12.5 -128.5t43.5 -94t73.5 -64t110.5 -39.5t147.5 -20.5t191.5 -5.5zM1487 1776l-203 -291h-156l103 291h256zM1114 1776l-205 -291h-153l100 291h258z" />
    <glyph glyph-name="ohungarumlaut" unicode="&#x151;" horiz-adv-x="2174" 
d="M1087 1393q505 0 753.5 -172t248.5 -535t-249 -536t-753 -173q-505 0 -753 172.5t-248 536.5t247.5 535.5t753.5 171.5zM1087 334q135 0 225 8.5t162.5 30.5t112 62t60 101t20.5 150q0 64 -10 112.5t-30 86t-54.5 63.5t-78 43.5t-107 27t-134 13.5t-166.5 4
q-112 0 -191 -5.5t-147.5 -20t-111 -39t-73.5 -64t-43.5 -93.5t-12.5 -128t12.5 -128.5t43.5 -94t73.5 -64t110.5 -39.5t147.5 -20.5t191.5 -5.5zM1487 1776l-203 -291h-156l103 291h256zM1114 1776l-205 -291h-153l100 291h258z" />
    <glyph glyph-name="OE" unicode="&#x152;" horiz-adv-x="3084" 
d="M1901 352h1167l-272 -352h-1319q-158 -23 -390 -23q-505 0 -753 172.5t-248 536.5t247.5 535.5t753.5 171.5q232 0 390 -23h1585l-273 -356h-888v-164h1085l-242 -311h-843v-187zM1087 334q269 0 390 39v624q-113 39 -390 39q-112 0 -191 -5.5t-147.5 -20t-111 -39
t-73.5 -64t-43.5 -93.5t-12.5 -128t12.5 -128.5t43.5 -94t73.5 -64t110.5 -39.5t147.5 -20.5t191.5 -5.5z" />
    <glyph glyph-name="oe" unicode="&#x153;" horiz-adv-x="3084" 
d="M1901 352h1167l-272 -352h-1319q-158 -23 -390 -23q-505 0 -753 172.5t-248 536.5t247.5 535.5t753.5 171.5q232 0 390 -23h1585l-273 -356h-888v-164h1085l-242 -311h-843v-187zM1087 334q269 0 390 39v624q-113 39 -390 39q-112 0 -191 -5.5t-147.5 -20t-111 -39
t-73.5 -64t-43.5 -93.5t-12.5 -128t12.5 -128.5t43.5 -94t73.5 -64t110.5 -39.5t147.5 -20.5t191.5 -5.5z" />
    <glyph glyph-name="Racute" unicode="&#x154;" horiz-adv-x="2095" 
d="M1821 266l252 -266h-568l-305 362h-651v-362h-424v700h1192q100 0 166.5 42.5t66.5 111.5q0 78 -61 119t-172 41h-1192l276 356h881q101 0 193.5 -13t188 -47t165.5 -87.5t114 -141t44 -200.5q0 -162 -96.5 -282t-262.5 -153q62 -46 193 -180zM1354 1776v-232l-611 -80
v170z" />
    <glyph glyph-name="racute" unicode="&#x155;" horiz-adv-x="2095" 
d="M1821 266l252 -266h-568l-305 362h-651v-362h-424v700h1192q100 0 166.5 42.5t66.5 111.5q0 78 -61 119t-172 41h-1192l276 356h881q101 0 193.5 -13t188 -47t165.5 -87.5t114 -141t44 -200.5q0 -162 -96.5 -282t-262.5 -153q62 -46 193 -180zM1354 1776v-232l-611 -80
v170z" />
    <glyph glyph-name="Rcommaaccent" unicode="&#x156;" horiz-adv-x="2095" 
d="M1821 266l252 -266h-568l-305 362h-651v-362h-424v700h1192q100 0 166.5 42.5t66.5 111.5q0 78 -61 119t-172 41h-1192l276 356h881q101 0 193.5 -13t188 -47t165.5 -87.5t114 -141t44 -200.5q0 -162 -96.5 -282t-262.5 -153q62 -46 193 -180zM850 -63h317l-170 -459
h-147v459z" />
    <glyph glyph-name="rcommaaccent" unicode="&#x157;" horiz-adv-x="2095" 
d="M1821 266l252 -266h-568l-305 362h-651v-362h-424v700h1192q100 0 166.5 42.5t66.5 111.5q0 78 -61 119t-172 41h-1192l276 356h881q101 0 193.5 -13t188 -47t165.5 -87.5t114 -141t44 -200.5q0 -162 -96.5 -282t-262.5 -153q62 -46 193 -180zM850 -63h317l-170 -459
h-147v459z" />
    <glyph glyph-name="Rcaron" unicode="&#x158;" horiz-adv-x="2095" 
d="M1821 266l252 -266h-568l-305 362h-651v-362h-424v700h1192q100 0 166.5 42.5t66.5 111.5q0 78 -61 119t-172 41h-1192l276 356h881q101 0 193.5 -13t188 -47t165.5 -87.5t114 -141t44 -200.5q0 -162 -96.5 -282t-262.5 -153q62 -46 193 -180zM854 1464l-192 312h204
l115 -207h18l113 207h203l-193 -312h-268z" />
    <glyph glyph-name="rcaron" unicode="&#x159;" horiz-adv-x="2095" 
d="M1821 266l252 -266h-568l-305 362h-651v-362h-424v700h1192q100 0 166.5 42.5t66.5 111.5q0 78 -61 119t-172 41h-1192l276 356h881q101 0 193.5 -13t188 -47t165.5 -87.5t114 -141t44 -200.5q0 -162 -96.5 -282t-262.5 -153q62 -46 193 -180zM854 1464l-192 312h204
l115 -207h18l113 207h203l-193 -312h-268z" />
    <glyph glyph-name="Sacute" unicode="&#x15a;" horiz-adv-x="1972" 
d="M653 823h746q252 0 383 -94t131 -280q0 -449 -588 -449h-1276l273 352h1036q76 0 110.5 23.5t34.5 77.5q0 52 -34.5 75t-110.5 23h-746q-256 0 -385 105t-129 288q0 202 143.5 314t444.5 112h1190l-272 -356h-951q-75 0 -110 -21.5t-35 -72.5q0 -52 35 -74.5t110 -22.5z
M1329 1776v-232l-610 -80v170z" />
    <glyph glyph-name="sacute" unicode="&#x15b;" horiz-adv-x="1972" 
d="M653 823h746q252 0 383 -94t131 -280q0 -449 -588 -449h-1276l273 352h1036q76 0 110.5 23.5t34.5 77.5q0 52 -34.5 75t-110.5 23h-746q-256 0 -385 105t-129 288q0 202 143.5 314t444.5 112h1190l-272 -356h-951q-75 0 -110 -21.5t-35 -72.5q0 -52 35 -74.5t110 -22.5z
M1329 1776v-232l-610 -80v170z" />
    <glyph glyph-name="Scedilla" unicode="&#x15e;" horiz-adv-x="1972" 
d="M653 823h746q252 0 383 -94t131 -280q0 -449 -588 -449h-1276l273 352h1036q76 0 110.5 23.5t34.5 77.5q0 52 -34.5 75t-110.5 23h-746q-256 0 -385 105t-129 288q0 202 143.5 314t444.5 112h1190l-272 -356h-951q-75 0 -110 -21.5t-35 -72.5q0 -52 35 -74.5t110 -22.5z
M827 -63h316l-168 -459h-148v459z" />
    <glyph glyph-name="scedilla" unicode="&#x15f;" horiz-adv-x="1972" 
d="M653 823h746q252 0 383 -94t131 -280q0 -449 -588 -449h-1276l273 352h1036q76 0 110.5 23.5t34.5 77.5q0 52 -34.5 75t-110.5 23h-746q-256 0 -385 105t-129 288q0 202 143.5 314t444.5 112h1190l-272 -356h-951q-75 0 -110 -21.5t-35 -72.5q0 -52 35 -74.5t110 -22.5z
M827 -63h316l-168 -459h-148v459z" />
    <glyph glyph-name="Scaron" unicode="&#x160;" horiz-adv-x="1972" 
d="M653 823h746q252 0 383 -94t131 -280q0 -449 -588 -449h-1276l273 352h1036q76 0 110.5 23.5t34.5 77.5q0 52 -34.5 75t-110.5 23h-746q-256 0 -385 105t-129 288q0 202 143.5 314t444.5 112h1190l-272 -356h-951q-75 0 -110 -21.5t-35 -72.5q0 -52 35 -74.5t110 -22.5z
M860 1464l-192 312h204l115 -207h19l112 207h203l-193 -312h-268z" />
    <glyph glyph-name="scaron" unicode="&#x161;" horiz-adv-x="1972" 
d="M653 823h746q252 0 383 -94t131 -280q0 -449 -588 -449h-1276l273 352h1036q76 0 110.5 23.5t34.5 77.5q0 52 -34.5 75t-110.5 23h-746q-256 0 -385 105t-129 288q0 202 143.5 314t444.5 112h1190l-272 -356h-951q-75 0 -110 -21.5t-35 -72.5q0 -52 35 -74.5t110 -22.5z
M860 1464l-192 312h204l115 -207h19l112 207h203l-193 -312h-268z" />
    <glyph glyph-name="Tcaron" unicode="&#x164;" horiz-adv-x="1830" 
d="M274 1370h1557l-275 -356h-489v-1014h-424v1014h-643zM723 1464l-193 312h205l115 -207h18l113 207h203l-193 -312h-268z" />
    <glyph glyph-name="tcaron" unicode="&#x165;" horiz-adv-x="1830" 
d="M274 1370h1557l-275 -356h-489v-1014h-424v1014h-643zM723 1464l-193 312h205l115 -207h18l113 207h203l-193 -312h-268z" />
    <glyph glyph-name="Tbar" unicode="&#x166;" horiz-adv-x="1830" 
d="M524 825h119v189h-643l274 356h1557l-275 -356h-489v-189h342l-207 -264h-135v-561h-424v561h-328z" />
    <glyph glyph-name="tbar" unicode="&#x167;" horiz-adv-x="1830" 
d="M524 825h119v189h-643l274 356h1557l-275 -356h-489v-189h342l-207 -264h-135v-561h-424v561h-328z" />
    <glyph glyph-name="Utilde" unicode="&#x168;" horiz-adv-x="2019" 
d="M1909 1370v-772q0 -621 -854 -621q-489 0 -716.5 153.5t-227.5 467.5v772h421v-772q0 -64 13 -106t45 -75.5t92.5 -51t150 -26.5t222.5 -9q164 0 257 27.5t132 84.5t39 156v772h426zM1157 1499q-52 0 -148 42t-149 42q-45 0 -87.5 -21t-70.5 -53v170q56 62 158 62
q53 0 148.5 -43t148.5 -43q45 0 86.5 21t69.5 53v-168q-54 -62 -156 -62z" />
    <glyph glyph-name="utilde" unicode="&#x169;" horiz-adv-x="2019" 
d="M1909 1370v-772q0 -621 -854 -621q-489 0 -716.5 153.5t-227.5 467.5v772h421v-772q0 -64 13 -106t45 -75.5t92.5 -51t150 -26.5t222.5 -9q164 0 257 27.5t132 84.5t39 156v772h426zM1157 1499q-52 0 -148 42t-149 42q-45 0 -87.5 -21t-70.5 -53v170q56 62 158 62
q53 0 148.5 -43t148.5 -43q45 0 86.5 21t69.5 53v-168q-54 -62 -156 -62z" />
    <glyph glyph-name="Umacron" unicode="&#x16a;" horiz-adv-x="2019" 
d="M1909 1370v-772q0 -621 -854 -621q-489 0 -716.5 153.5t-227.5 467.5v772h421v-772q0 -64 13 -106t45 -75.5t92.5 -51t150 -26.5t222.5 -9q164 0 257 27.5t132 84.5t39 156v772h426zM1313 1706v-170h-611v170h611z" />
    <glyph glyph-name="umacron" unicode="&#x16b;" horiz-adv-x="2019" 
d="M1909 1370v-772q0 -621 -854 -621q-489 0 -716.5 153.5t-227.5 467.5v772h421v-772q0 -64 13 -106t45 -75.5t92.5 -51t150 -26.5t222.5 -9q164 0 257 27.5t132 84.5t39 156v772h426zM1313 1706v-170h-611v170h611z" />
    <glyph glyph-name="Ubreve" unicode="&#x16c;" horiz-adv-x="2019" 
d="M1909 1370v-772q0 -621 -854 -621q-489 0 -716.5 153.5t-227.5 467.5v772h421v-772q0 -64 13 -106t45 -75.5t92.5 -51t150 -26.5t222.5 -9q164 0 257 27.5t132 84.5t39 156v772h426zM1133 1776h202q0 -34 -8 -73t-28 -82.5t-49 -77.5t-75 -56.5t-102 -22.5h-127
q-56 0 -102 22.5t-75.5 57t-49.5 77t-28.5 82t-8.5 73.5h205q0 -26 5.5 -55.5t17.5 -60.5t35.5 -51t55.5 -20h29q28 0 49.5 20t32.5 51t16 60.5t5 55.5z" />
    <glyph glyph-name="ubreve" unicode="&#x16d;" horiz-adv-x="2019" 
d="M1909 1370v-772q0 -621 -854 -621q-489 0 -716.5 153.5t-227.5 467.5v772h421v-772q0 -64 13 -106t45 -75.5t92.5 -51t150 -26.5t222.5 -9q164 0 257 27.5t132 84.5t39 156v772h426zM1133 1776h202q0 -34 -8 -73t-28 -82.5t-49 -77.5t-75 -56.5t-102 -22.5h-127
q-56 0 -102 22.5t-75.5 57t-49.5 77t-28.5 82t-8.5 73.5h205q0 -26 5.5 -55.5t17.5 -60.5t35.5 -51t55.5 -20h29q28 0 49.5 20t32.5 51t16 60.5t5 55.5z" />
    <glyph glyph-name="Uring" unicode="&#x16e;" horiz-adv-x="2019" 
d="M1909 1370v-772q0 -621 -854 -621q-489 0 -716.5 153.5t-227.5 467.5v772h421v-772q0 -64 13 -106t45 -75.5t92.5 -51t150 -26.5t222.5 -9q164 0 257 27.5t132 84.5t39 156v772h426zM1104 1788h-193q-39 0 -39 -37v-104q0 -37 39 -37h193q41 0 41 37v104q0 37 -41 37z
M1305 1763v-129q0 -170 -213 -170h-168q-211 0 -211 170v129q0 172 211 172h168q213 0 213 -172z" />
    <glyph glyph-name="uring" unicode="&#x16f;" horiz-adv-x="2019" 
d="M1909 1370v-772q0 -621 -854 -621q-489 0 -716.5 153.5t-227.5 467.5v772h421v-772q0 -64 13 -106t45 -75.5t92.5 -51t150 -26.5t222.5 -9q164 0 257 27.5t132 84.5t39 156v772h426zM1104 1788h-193q-39 0 -39 -37v-104q0 -37 39 -37h193q41 0 41 37v104q0 37 -41 37z
M1305 1763v-129q0 -170 -213 -170h-168q-211 0 -211 170v129q0 172 211 172h168q213 0 213 -172z" />
    <glyph glyph-name="Uhungarumlaut" unicode="&#x170;" horiz-adv-x="2019" 
d="M1909 1370v-772q0 -621 -854 -621q-489 0 -716.5 153.5t-227.5 467.5v772h421v-772q0 -64 13 -106t45 -75.5t92.5 -51t150 -26.5t222.5 -9q164 0 257 27.5t132 84.5t39 156v772h426zM1448 1776l-203 -291h-155l102 291h256zM1075 1776l-205 -291h-153l100 291h258z" />
    <glyph glyph-name="uhungarumlaut" unicode="&#x171;" horiz-adv-x="2019" 
d="M1909 1370v-772q0 -621 -854 -621q-489 0 -716.5 153.5t-227.5 467.5v772h421v-772q0 -64 13 -106t45 -75.5t92.5 -51t150 -26.5t222.5 -9q164 0 257 27.5t132 84.5t39 156v772h426zM1448 1776l-203 -291h-155l102 291h256zM1075 1776l-205 -291h-153l100 291h258z" />
    <glyph glyph-name="Uogonek" unicode="&#x172;" horiz-adv-x="2019" 
d="M1346 -250v-262h-213q-111 0 -178.5 51.5t-67.5 126.5q0 98 104 180l162 136q-83 -5 -98 -5q-489 0 -716.5 153.5t-227.5 467.5v772h421v-772q0 -64 13 -106t45 -75.5t92.5 -51t150 -26.5t222.5 -9q164 0 257 27.5t132 84.5t39 156v772h426v-772q0 -506 -566 -598
l-221 -180q-20 -15 -20 -37q0 -14 11 -23.5t32 -9.5h201z" />
    <glyph glyph-name="uogonek" unicode="&#x173;" horiz-adv-x="2019" 
d="M1346 -250v-262h-213q-111 0 -178.5 51.5t-67.5 126.5q0 98 104 180l162 136q-83 -5 -98 -5q-489 0 -716.5 153.5t-227.5 467.5v772h421v-772q0 -64 13 -106t45 -75.5t92.5 -51t150 -26.5t222.5 -9q164 0 257 27.5t132 84.5t39 156v772h426v-772q0 -506 -566 -598
l-221 -180q-20 -15 -20 -37q0 -14 11 -23.5t32 -9.5h201z" />
    <glyph glyph-name="Wcircumflex" unicode="&#x174;" horiz-adv-x="2580" 
d="M1722 123l-219 387q-156 277 -221 412q-50 -114 -217 -410l-219 -389q-81 -146 -234 -146q-83 0 -146.5 48.5t-90.5 140.5l-348 1204h424l129 -477q68 -243 92 -377q64 137 192 379l185 344q50 94 103.5 124t137.5 30q86 0 141 -30t105 -124l182 -346q121 -223 193 -377
q28 131 94 377l129 477h414l-355 -1204q-27 -92 -90.5 -140.5t-146.5 -48.5q-151 0 -234 146zM1425 1776l191 -312h-203l-115 207h-18l-113 -207h-204l194 312h268z" />
    <glyph glyph-name="wcircumflex" unicode="&#x175;" horiz-adv-x="2580" 
d="M1722 123l-219 387q-156 277 -221 412q-50 -114 -217 -410l-219 -389q-81 -146 -234 -146q-83 0 -146.5 48.5t-90.5 140.5l-348 1204h424l129 -477q68 -243 92 -377q64 137 192 379l185 344q50 94 103.5 124t137.5 30q86 0 141 -30t105 -124l182 -346q121 -223 193 -377
q28 131 94 377l129 477h414l-355 -1204q-27 -92 -90.5 -140.5t-146.5 -48.5q-151 0 -234 146zM1425 1776l191 -312h-203l-115 207h-18l-113 -207h-204l194 312h268z" />
    <glyph glyph-name="Ycircumflex" unicode="&#x176;" horiz-adv-x="2105" 
d="M1559 1370h532l-813 -917v-453h-426v455l-836 915h545l328 -381q6 -7 56 -63t83.5 -95t46.5 -57q35 51 172 217zM1219 1776l190 -312h-203l-114 207h-19l-112 -207h-205l194 312h269z" />
    <glyph glyph-name="ycircumflex" unicode="&#x177;" horiz-adv-x="2105" 
d="M1559 1370h532l-813 -917v-453h-426v455l-836 915h545l328 -381q6 -7 56 -63t83.5 -95t46.5 -57q35 51 172 217zM1219 1776l190 -312h-203l-114 207h-19l-112 -207h-205l194 312h269z" />
    <glyph glyph-name="Ydieresis" unicode="&#x178;" horiz-adv-x="2105" 
d="M1559 1370h532l-813 -917v-453h-426v455l-836 915h545l328 -381q6 -7 56 -63t83.5 -95t46.5 -57q35 51 172 217zM686 1649q0 71 49.5 112t124.5 41q76 0 126 -41t50 -112q0 -69 -50 -109.5t-126 -40.5q-74 0 -124 40.5t-50 109.5zM1112 1649q0 71 50 112t124 41
q76 0 126 -41t50 -112q0 -69 -50 -109.5t-126 -40.5q-73 0 -123.5 41t-50.5 109z" />
    <glyph glyph-name="Zacute" unicode="&#x179;" horiz-adv-x="1841" 
d="M1825 352l-256 -352h-1299q-83 0 -139.5 46t-56.5 126q0 97 92 170l500 393q186 149 376 287q-99 -8 -471 -8h-548l270 356h1263q83 0 140 -46t57 -126q0 -46 -24.5 -91t-67.5 -77l-506 -401q-265 -209 -373 -285q136 8 545 8h498zM1225 1776v-232l-611 -80v170z" />
    <glyph glyph-name="zacute" unicode="&#x17a;" horiz-adv-x="1841" 
d="M1825 352l-256 -352h-1299q-83 0 -139.5 46t-56.5 126q0 97 92 170l500 393q186 149 376 287q-99 -8 -471 -8h-548l270 356h1263q83 0 140 -46t57 -126q0 -46 -24.5 -91t-67.5 -77l-506 -401q-265 -209 -373 -285q136 8 545 8h498zM1225 1776v-232l-611 -80v170z" />
    <glyph glyph-name="Zdotaccent" unicode="&#x17b;" horiz-adv-x="1841" 
d="M1825 352l-256 -352h-1299q-83 0 -139.5 46t-56.5 126q0 97 92 170l500 393q186 149 376 287q-99 -8 -471 -8h-548l270 356h1263q83 0 140 -46t57 -126q0 -46 -24.5 -91t-67.5 -77l-506 -401q-265 -209 -373 -285q136 8 545 8h498zM788 1649q0 71 50 112t125 41
q76 0 126 -41t50 -112q0 -69 -50 -109.5t-126 -40.5q-74 0 -124.5 41t-50.5 109z" />
    <glyph glyph-name="zdotaccent" unicode="&#x17c;" horiz-adv-x="1841" 
d="M1825 352l-256 -352h-1299q-83 0 -139.5 46t-56.5 126q0 97 92 170l500 393q186 149 376 287q-99 -8 -471 -8h-548l270 356h1263q83 0 140 -46t57 -126q0 -46 -24.5 -91t-67.5 -77l-506 -401q-265 -209 -373 -285q136 8 545 8h498zM788 1649q0 71 50 112t125 41
q76 0 126 -41t50 -112q0 -69 -50 -109.5t-126 -40.5q-74 0 -124.5 41t-50.5 109z" />
    <glyph glyph-name="Zcaron" unicode="&#x17d;" horiz-adv-x="1841" 
d="M1825 352l-256 -352h-1299q-83 0 -139.5 46t-56.5 126q0 97 92 170l500 393q186 149 376 287q-99 -8 -471 -8h-548l270 356h1263q83 0 140 -46t57 -126q0 -46 -24.5 -91t-67.5 -77l-506 -401q-265 -209 -373 -285q136 8 545 8h498zM805 1464l-193 312h205l115 -207h18
l113 207h203l-193 -312h-268z" />
    <glyph glyph-name="zcaron" unicode="&#x17e;" horiz-adv-x="1841" 
d="M1825 352l-256 -352h-1299q-83 0 -139.5 46t-56.5 126q0 97 92 170l500 393q186 149 376 287q-99 -8 -471 -8h-548l270 356h1263q83 0 140 -46t57 -126q0 -46 -24.5 -91t-67.5 -77l-506 -401q-265 -209 -373 -285q136 8 545 8h498zM805 1464l-193 312h205l115 -207h18
l113 207h203l-193 -312h-268z" />
    <glyph glyph-name="Scommaaccent" unicode="&#x218;" horiz-adv-x="1972" 
d="M653 823h746q252 0 383 -94t131 -280q0 -449 -588 -449h-1276l273 352h1036q76 0 110.5 23.5t34.5 77.5q0 52 -34.5 75t-110.5 23h-746q-256 0 -385 105t-129 288q0 202 143.5 314t444.5 112h1190l-272 -356h-951q-75 0 -110 -21.5t-35 -72.5q0 -52 35 -74.5t110 -22.5z
M827 -63h318l-170 -459h-148v459z" />
    <glyph glyph-name="scommaaccent" unicode="&#x219;" horiz-adv-x="1972" 
d="M653 823h746q252 0 383 -94t131 -280q0 -449 -588 -449h-1276l273 352h1036q76 0 110.5 23.5t34.5 77.5q0 52 -34.5 75t-110.5 23h-746q-256 0 -385 105t-129 288q0 202 143.5 314t444.5 112h1190l-272 -356h-951q-75 0 -110 -21.5t-35 -72.5q0 -52 35 -74.5t110 -22.5z
M827 -63h318l-170 -459h-148v459z" />
    <glyph glyph-name="uni021A" unicode="&#x21a;" horiz-adv-x="1830" 
d="M274 1370h1557l-275 -356h-489v-1014h-424v1014h-643zM698 -63h318l-170 -459h-148v459z" />
    <glyph glyph-name="uni021B" unicode="&#x21b;" horiz-adv-x="1830" 
d="M274 1370h1557l-275 -356h-489v-1014h-424v1014h-643zM698 -63h318l-170 -459h-148v459z" />
    <glyph glyph-name="circumflex" unicode="&#x2c6;" horiz-adv-x="847" 
d="M559 1776l191 -312h-203l-115 207h-18l-113 -207h-205l195 312h268z" />
    <glyph glyph-name="caron" unicode="&#x2c7;" horiz-adv-x="847" 
d="M289 1464l-193 312h205l115 -207h18l113 207h203l-193 -312h-268z" />
    <glyph glyph-name="breve" unicode="&#x2d8;" horiz-adv-x="847" 
d="M547 1776h203q0 -44 -14.5 -94t-43.5 -101t-82.5 -84t-122.5 -33h-127q-56 0 -102 22.5t-75.5 57t-49.5 77t-28.5 82t-8.5 73.5h205q0 -26 5.5 -55.5t17.5 -60.5t36 -51t56 -20h28q28 0 49.5 20t32.5 51t16 60.5t5 55.5z" />
    <glyph glyph-name="dotaccent" unicode="&#x2d9;" horiz-adv-x="452" 
d="M53 1649q0 71 49.5 112t124.5 41q76 0 126 -41t50 -112q0 -69 -50 -109.5t-126 -40.5q-74 0 -124 40.5t-50 109.5z" />
    <glyph glyph-name="ring" unicode="&#x2da;" horiz-adv-x="784" 
d="M487 1788h-192q-39 0 -39 -37v-104q0 -37 39 -37h192q41 0 41 37v104q0 37 -41 37zM688 1763v-129q0 -170 -213 -170h-168q-211 0 -211 170v129q0 172 211 172h168q213 0 213 -172z" />
    <glyph glyph-name="ogonek" unicode="&#x2db;" horiz-adv-x="632" 
d="M537 -250v-262h-213q-111 0 -177.5 51.5t-66.5 126.5q0 99 102 180l189 154h166l-224 -180q-20 -17 -20 -37q0 -33 45 -33h199z" />
    <glyph glyph-name="tilde" unicode="&#x2dc;" horiz-adv-x="804" 
d="M551 1499q-52 0 -148 42t-149 42q-45 0 -87.5 -21t-70.5 -53v170q56 62 158 62q53 0 148.5 -43t148.5 -43q45 0 86.5 21t69.5 53v-168q-54 -62 -156 -62z" />
    <glyph glyph-name="hungarumlaut" unicode="&#x2dd;" horiz-adv-x="925" 
d="M887 1776l-203 -291h-156l103 291h256zM514 1776l-205 -291h-153l100 291h258z" />
    <glyph glyph-name="commaaccent" unicode="&#x326;" horiz-adv-x="530" 
d="M133 -63h318l-170 -459h-148v459z" />
    <glyph glyph-name="Wgrave" unicode="&#x1e80;" horiz-adv-x="2580" 
d="M1722 123l-219 387q-156 277 -221 412q-50 -114 -217 -410l-219 -389q-81 -146 -234 -146q-83 0 -146.5 48.5t-90.5 140.5l-348 1204h424l129 -477q68 -243 92 -377q64 137 192 379l185 344q50 94 103.5 124t137.5 30q86 0 141 -30t105 -124l182 -346q121 -223 193 -377
q28 131 94 377l129 477h414l-355 -1204q-27 -92 -90.5 -140.5t-146.5 -48.5q-151 0 -234 146zM1536 1634v-170l-610 80v232z" />
    <glyph glyph-name="wgrave" unicode="&#x1e81;" horiz-adv-x="2580" 
d="M1722 123l-219 387q-156 277 -221 412q-50 -114 -217 -410l-219 -389q-81 -146 -234 -146q-83 0 -146.5 48.5t-90.5 140.5l-348 1204h424l129 -477q68 -243 92 -377q64 137 192 379l185 344q50 94 103.5 124t137.5 30q86 0 141 -30t105 -124l182 -346q121 -223 193 -377
q28 131 94 377l129 477h414l-355 -1204q-27 -92 -90.5 -140.5t-146.5 -48.5q-151 0 -234 146zM1536 1634v-170l-610 80v232z" />
    <glyph glyph-name="Wacute" unicode="&#x1e82;" horiz-adv-x="2580" 
d="M1722 123l-219 387q-156 277 -221 412q-50 -114 -217 -410l-219 -389q-81 -146 -234 -146q-83 0 -146.5 48.5t-90.5 140.5l-348 1204h424l129 -477q68 -243 92 -377q64 137 192 379l185 344q50 94 103.5 124t137.5 30q86 0 141 -30t105 -124l182 -346q121 -223 193 -377
q28 131 94 377l129 477h414l-355 -1204q-27 -92 -90.5 -140.5t-146.5 -48.5q-151 0 -234 146zM1653 1776v-232l-611 -80v170z" />
    <glyph glyph-name="wacute" unicode="&#x1e83;" horiz-adv-x="2580" 
d="M1722 123l-219 387q-156 277 -221 412q-50 -114 -217 -410l-219 -389q-81 -146 -234 -146q-83 0 -146.5 48.5t-90.5 140.5l-348 1204h424l129 -477q68 -243 92 -377q64 137 192 379l185 344q50 94 103.5 124t137.5 30q86 0 141 -30t105 -124l182 -346q121 -223 193 -377
q28 131 94 377l129 477h414l-355 -1204q-27 -92 -90.5 -140.5t-146.5 -48.5q-151 0 -234 146zM1653 1776v-232l-611 -80v170z" />
    <glyph glyph-name="Wdieresis" unicode="&#x1e84;" horiz-adv-x="2580" 
d="M1722 123l-219 387q-156 277 -221 412q-50 -114 -217 -410l-219 -389q-81 -146 -234 -146q-83 0 -146.5 48.5t-90.5 140.5l-348 1204h424l129 -477q68 -243 92 -377q64 137 192 379l185 344q50 94 103.5 124t137.5 30q86 0 141 -30t105 -124l182 -346q121 -223 193 -377
q28 131 94 377l129 477h414l-355 -1204q-27 -92 -90.5 -140.5t-146.5 -48.5q-151 0 -234 146zM903 1649q0 71 49.5 112t124.5 41q76 0 126 -41t50 -112q0 -69 -50 -109.5t-126 -40.5q-74 0 -124 40.5t-50 109.5zM1329 1649q0 71 50 112t124 41q76 0 126 -41t50 -112
q0 -69 -50 -109.5t-126 -40.5q-73 0 -123.5 41t-50.5 109z" />
    <glyph glyph-name="wdieresis" unicode="&#x1e85;" horiz-adv-x="2580" 
d="M1722 123l-219 387q-156 277 -221 412q-50 -114 -217 -410l-219 -389q-81 -146 -234 -146q-83 0 -146.5 48.5t-90.5 140.5l-348 1204h424l129 -477q68 -243 92 -377q64 137 192 379l185 344q50 94 103.5 124t137.5 30q86 0 141 -30t105 -124l182 -346q121 -223 193 -377
q28 131 94 377l129 477h414l-355 -1204q-27 -92 -90.5 -140.5t-146.5 -48.5q-151 0 -234 146zM903 1649q0 71 49.5 112t124.5 41q76 0 126 -41t50 -112q0 -69 -50 -109.5t-126 -40.5q-74 0 -124 40.5t-50 109.5zM1329 1649q0 71 50 112t124 41q76 0 126 -41t50 -112
q0 -69 -50 -109.5t-126 -40.5q-73 0 -123.5 41t-50.5 109z" />
    <glyph glyph-name="Ygrave" unicode="&#x1ef2;" horiz-adv-x="2105" 
d="M1559 1370h532l-813 -917v-453h-426v455l-836 915h545l328 -381q6 -7 56 -63t83.5 -95t46.5 -57q35 51 172 217zM1298 1634v-170l-610 80v232z" />
    <glyph glyph-name="ygrave" unicode="&#x1ef3;" horiz-adv-x="2105" 
d="M1559 1370h532l-813 -917v-453h-426v455l-836 915h545l328 -381q6 -7 56 -63t83.5 -95t46.5 -57q35 51 172 217zM1298 1634v-170l-610 80v232z" />
    <glyph glyph-name="endash" unicode="&#x2013;" horiz-adv-x="1280" 
d="M238 825h1013l-207 -264h-1013z" />
    <glyph glyph-name="emdash" unicode="&#x2014;" horiz-adv-x="2054" 
d="M238 825h1790l-207 -264h-1790z" />
    <glyph glyph-name="quoteleft" unicode="&#x2018;" horiz-adv-x="448" 
d="M414 821h-379l201 549h178v-549z" />
    <glyph glyph-name="quoteright" unicode="&#x2019;" horiz-adv-x="448" 
d="M35 1370h379l-203 -549h-176v549z" />
    <glyph glyph-name="quotesinglbase" unicode="&#x201a;" horiz-adv-x="448" 
d="M35 352h379l-203 -549h-176v549z" />
    <glyph glyph-name="uni201B" unicode="&#x201b;" horiz-adv-x="448" 
d="M35 1370h379v-549h-178z" />
    <glyph glyph-name="quotedblleft" unicode="&#x201c;" horiz-adv-x="913" 
d="M879 821h-379l202 549h177v-549zM414 821h-379l201 549h178v-549z" />
    <glyph glyph-name="quotedblright" unicode="&#x201d;" horiz-adv-x="913" 
d="M500 1370h379l-203 -549h-176v549zM35 1370h379l-203 -549h-176v549z" />
    <glyph glyph-name="quotedblbase" unicode="&#x201e;" horiz-adv-x="913" 
d="M500 352h379l-203 -549h-176v549zM35 352h379l-203 -549h-176v549z" />
    <glyph glyph-name="uni201F" unicode="&#x201f;" horiz-adv-x="913" 
d="M35 1370h379v-549h-178zM500 1370h379v-549h-177z" />
    <glyph glyph-name="dagger" unicode="&#x2020;" horiz-adv-x="878" 
d="M457 1370l65 -371l254 -77l-252 -80l-65 -842h-53l-62 842l-256 80l256 77l64 371h49z" />
    <glyph glyph-name="daggerdbl" unicode="&#x2021;" horiz-adv-x="892" 
d="M461 1370l61 -313l254 -64v-41l-252 -65v-406l252 -63v-41l-254 -64l-61 -315h-47l-66 315l-250 64v41l248 63v408l-250 74l4 43l248 53l66 311h47z" />
    <glyph glyph-name="bullet" unicode="&#x2022;" horiz-adv-x="937" 
d="M121 686q0 145 101.5 246.5t246.5 101.5t246.5 -101.5t101.5 -246.5t-101.5 -246.5t-246.5 -101.5t-246.5 101.5t-101.5 246.5z" />
    <glyph glyph-name="ellipsis" unicode="&#x2026;" horiz-adv-x="1898" 
d="M86 174q0 93 65.5 147t163.5 54q100 0 166 -54t66 -147q0 -91 -66 -144t-166 -53q-99 0 -164 53t-65 144zM719 174q0 93 65.5 147t163.5 54q100 0 166 -54t66 -147q0 -91 -66 -144t-166 -53q-99 0 -164 53t-65 144zM1352 174q0 93 65.5 147t163.5 54q100 0 165.5 -54
t65.5 -147q0 -91 -65.5 -144t-165.5 -53q-99 0 -164 53t-65 144z" />
    <glyph glyph-name="perthousand" unicode="&#x2030;" horiz-adv-x="2783" 
d="M524 1417q221 0 329 -85.5t108 -266.5q0 -183 -108 -268.5t-329 -85.5q-222 0 -330 85.5t-108 268.5q0 181 108 266.5t330 85.5zM524 889q130 0 179 34.5t49 141.5q0 106 -49 140t-179 34q-132 0 -180.5 -34t-48.5 -140q0 -107 49 -141.5t180 -34.5zM1393 1446h172
l-1092 -1524h-186zM1348 676q220 0 328 -85.5t108 -266.5q0 -183 -108 -269t-328 -86q-222 0 -330.5 86t-108.5 269q0 181 108.5 266.5t330.5 85.5zM1348 147q129 0 178 35t49 142q0 106 -48.5 140t-178.5 34q-132 0 -181 -34t-49 -140q0 -107 49.5 -142t180.5 -35z
M2263 676q220 0 328 -85.5t108 -266.5q0 -183 -108 -269t-328 -86q-222 0 -330 86t-108 269q0 181 108 266.5t330 85.5zM2263 147q129 0 178 35t49 142q0 106 -48.5 140t-178.5 34q-132 0 -180.5 -34t-48.5 -140q0 -107 49 -142t180 -35z" />
    <glyph glyph-name="uni2032" unicode="&#x2032;" horiz-adv-x="454" 
d="M137 1370h328l-260 -549h-191z" />
    <glyph glyph-name="uni2033" unicode="&#x2033;" horiz-adv-x="909" 
d="M137 1370h328l-260 -549h-191zM592 1370h328l-261 -549h-190z" />
    <glyph glyph-name="guilsinglleft" unicode="&#x2039;" horiz-adv-x="501" 
d="M416 813l-232 -147l232 -152v-190l-357 241v187l357 256v-195z" />
    <glyph glyph-name="guilsinglright" unicode="&#x203a;" horiz-adv-x="501" 
d="M328 666l-234 147v195l359 -256v-187l-359 -241v190z" />
    <glyph glyph-name="fraction" unicode="&#x2044;" horiz-adv-x="579" 
d="M768 1446h172l-1092 -1524h-186z" />
    <glyph glyph-name="zerosuperior" unicode="&#x2070;" horiz-adv-x="1017" 
d="M510 1417q220 0 328 -85.5t108 -266.5q0 -183 -107.5 -268.5t-328.5 -85.5q-222 0 -330 85.5t-108 268.5q0 181 108 266.5t330 85.5zM510 889q130 0 178.5 34.5t48.5 141.5q0 106 -48.5 140t-178.5 34q-132 0 -180.5 -34t-48.5 -140q0 -107 49 -141.5t180 -34.5z" />
    <glyph glyph-name="foursuperior" unicode="&#x2074;" horiz-adv-x="1040" 
d="M606 803h-444q-48 0 -76.5 27.5t-28.5 66.5q0 46 45 82l494 401q45 37 98 37q49 0 83 -32t34 -95v-317h195l-123 -170h-72v-80h-205v80zM606 973v100q0 42 4 88q-18 -18 -73 -63l-76 -62q-21 -18 -92 -67q58 4 116 4h121z" />
    <glyph glyph-name="fivesuperior" unicode="&#x2075;" horiz-adv-x="978" 
d="M106 1407h777l-138 -178h-428v-96h332q258 0 258 -189q0 -221 -295 -221h-540l135 176h424q36 0 53.5 10.5t17.5 36.5q0 51 -71 51h-525v410z" />
    <glyph glyph-name="sixsuperior" unicode="&#x2076;" horiz-adv-x="1052" 
d="M475 1229q-64 0 -112 -25.5t-72 -70.5h432q121 0 189.5 -49.5t68.5 -141.5q0 -231 -428 -231q-241 0 -361 87.5t-120 272.5q0 149 116 242.5t297 93.5h441l-138 -178h-313zM707 997h-416q18 -65 80.5 -86.5t191.5 -21.5q127 0 172 14t45 47q0 47 -73 47z" />
    <glyph glyph-name="sevensuperior" unicode="&#x2077;" horiz-adv-x="921" 
d="M850 1235l-438 -512h-269l338 377q91 104 125 133q-39 -4 -192 -4h-373l135 178h592q56 0 86.5 -26t30.5 -66t-35 -80z" />
    <glyph glyph-name="eightsuperior" unicode="&#x2078;" horiz-adv-x="1032" 
d="M684 723h-336q-78 0 -133.5 14.5t-85.5 42t-43.5 62.5t-13.5 80q0 59 29.5 99t76.5 54q-39 11 -65.5 48.5t-26.5 93.5q0 92 71.5 141t196.5 49h324q127 0 198.5 -49t71.5 -141q0 -56 -27.5 -93t-66.5 -49q48 -14 77.5 -54t29.5 -99q0 -94 -62.5 -146.5t-214.5 -52.5z
M684 991h-336q-65 0 -65 -47q0 -45 65 -45h336q66 0 66 45q0 25 -15.5 36t-50.5 11zM688 1229h-344q-57 0 -57 -43q0 -47 57 -47h344q57 0 57 47q0 43 -57 43z" />
    <glyph glyph-name="ninesuperior" unicode="&#x2079;" horiz-adv-x="1052" 
d="M270 899h308q64 0 111.5 31.5t72.5 81.5q-108 -17 -434 -17q-119 0 -187.5 49.5t-68.5 141.5q0 68 34.5 115t97.5 71.5t134 34.5t162 10q481 0 481 -338q0 -163 -116 -259.5t-298 -96.5h-432zM344 1130q308 0 416 11q-14 61 -76 79.5t-197 18.5q-126 0 -171.5 -14
t-45.5 -47q0 -48 74 -48z" />
    <glyph glyph-name="zeroinferior" unicode="&#x2080;" horiz-adv-x="1017" 
d="M510 676q220 0 328 -85.5t108 -266.5q0 -183 -108 -269t-328 -86q-222 0 -330 86t-108 269q0 181 108 266.5t330 85.5zM510 147q129 0 178 35t49 142q0 106 -48.5 140t-178.5 34q-132 0 -180.5 -34t-48.5 -140q0 -107 49 -142t180 -35z" />
    <glyph glyph-name="oneinferior" unicode="&#x2081;" horiz-adv-x="514" 
d="M41 487l127 179h252v-684h-213v505h-166z" />
    <glyph glyph-name="twoinferior" unicode="&#x2082;" horiz-adv-x="1015" 
d="M106 487l136 179h401q151 0 223 -56t72 -157q0 -91 -65 -144t-193 -53h-326q-71 0 -71 -51v-47h661l-137 -176h-729v221q0 188 258 188h326q71 0 71 49q0 26 -17.5 36.5t-53.5 10.5h-556z" />
    <glyph glyph-name="threeinferior" unicode="&#x2083;" horiz-adv-x="991" 
d="M39 -18l133 176h469q66 0 66 45q0 25 -15.5 36t-50.5 11h-410l111 147h303q60 0 60 47q0 43 -60 43h-573l135 179h428q126 0 198 -49.5t72 -141.5q0 -56 -27 -92.5t-65 -48.5q47 -14 77 -54.5t30 -99.5q0 -94 -63.5 -146t-215.5 -52h-602z" />
    <glyph glyph-name="fourinferior" unicode="&#x2084;" horiz-adv-x="1040" 
d="M606 61h-444q-48 0 -76.5 28t-28.5 67q0 46 45 82l494 401q45 37 98 37q49 0 83 -32t34 -95v-318h195l-123 -170h-72v-79h-205v79zM606 231v101q0 42 4 88q-23 -24 -73 -64l-76 -61q-28 -24 -92 -68q58 4 116 4h121z" />
    <glyph glyph-name="fiveinferior" unicode="&#x2085;" horiz-adv-x="978" 
d="M106 666h777l-138 -179h-428v-96h332q258 0 258 -188q0 -221 -295 -221h-540l135 176h424q36 0 53.5 10.5t17.5 36.5q0 51 -71 51h-525v410z" />
    <glyph glyph-name="sixinferior" unicode="&#x2086;" horiz-adv-x="1052" 
d="M475 487q-64 0 -112 -25.5t-72 -70.5h432q121 0 189.5 -49t68.5 -141q0 -232 -428 -232q-241 0 -361 88t-120 273q0 149 116 242.5t297 93.5h441l-138 -179h-313zM707 256h-416q18 -65 80.5 -87t191.5 -22q127 0 172 14.5t45 47.5q0 47 -73 47z" />
    <glyph glyph-name="seveninferior" unicode="&#x2087;" horiz-adv-x="921" 
d="M850 494l-438 -512h-269l338 376q95 108 125 134q-49 -5 -192 -5h-373l135 179h592q56 0 86.5 -26.5t30.5 -66.5q0 -39 -35 -79z" />
    <glyph glyph-name="eightinferior" unicode="&#x2088;" horiz-adv-x="1032" 
d="M684 -18h-336q-152 0 -214 52t-62 146q0 59 29.5 99.5t76.5 54.5q-39 12 -65.5 48.5t-26.5 92.5q0 92 71.5 141.5t196.5 49.5h324q126 0 198 -49.5t72 -141.5q0 -56 -27.5 -92.5t-66.5 -48.5q48 -14 77.5 -54.5t29.5 -99.5q0 -94 -62.5 -146t-214.5 -52zM684 250h-336
q-65 0 -65 -47q0 -45 65 -45h336q66 0 66 45q0 25 -15.5 36t-50.5 11zM688 487h-344q-57 0 -57 -43q0 -47 57 -47h344q57 0 57 47q0 43 -57 43z" />
    <glyph glyph-name="nineinferior" unicode="&#x2089;" horiz-adv-x="1052" 
d="M270 158h308q64 0 111.5 31t72.5 81q-102 -16 -434 -16q-119 0 -187.5 49t-68.5 141q0 232 428 232q481 0 481 -338q0 -163 -116 -259.5t-298 -96.5h-432zM344 389q318 0 416 10q-14 61 -76.5 80t-196.5 19q-126 0 -171.5 -14.5t-45.5 -47.5q0 -47 74 -47z" />
    <glyph glyph-name="Euro" unicode="&#x20ac;" horiz-adv-x="1820" 
d="M14 743l92 138h99q68 223 285 356t516 133h768l-277 -356h-491q-103 0 -188 -35t-140 -98h713l-105 -138h-676q-6 -30 -6 -63q0 -27 2 -39h602l-106 -135h-443q51 -73 142 -113.5t205 -40.5h690l-273 -352h-417q-293 0 -509.5 139.5t-287.5 366.5h-195l92 135h76
q-2 18 -2 57q0 31 2 45h-168z" />
    <glyph glyph-name="uni2117" unicode="&#x2117;" horiz-adv-x="1607" 
d="M1171 776q0 -106 -75.5 -168.5t-208.5 -62.5h-281v-189h-131v299h422q63 0 98 33t35 88q0 56 -34.5 88.5t-98.5 32.5h-383l92 115h281q133 0 208.5 -65t75.5 -171zM90 686q0 116 36 224.5t101.5 195.5t152.5 152.5t195.5 101t223.5 35.5q192 0 355 -94.5t258 -258
t95 -356.5q0 -144 -56 -275.5t-151 -226.5t-226 -151t-275 -56q-115 0 -223.5 36t-195.5 101.5t-152.5 152.5t-101.5 195.5t-36 223.5zM174 684q0 -128 49.5 -244.5t133.5 -200t200.5 -133t245.5 -49.5q170 0 314.5 83.5t228.5 228t84 315.5q0 170 -84 316t-228.5 231.5
t-314.5 85.5q-129 0 -245.5 -50.5t-200.5 -136t-133.5 -202t-49.5 -244.5z" />
    <glyph glyph-name="trademark" unicode="&#x2122;" horiz-adv-x="1183" 
d="M500 1370v-123h-152v-450h-125v450h-153v123h430zM1090 1370v-573h-127v215l-89 -215h-96l-88 213v-213h-127v573h115l149 -362l148 362h115z" />
    <glyph glyph-name="onethird" unicode="&#x2153;" horiz-adv-x="1890" 
d="M86 1229l127 178h252v-684h-213v506h-166zM1229 1446h172l-1092 -1524h-186zM924 -18l133 176h469q35 0 50 10.5t15 34.5q0 25 -15 36t-50 11h-410l111 147h303q59 0 59 47q0 43 -59 43h-574l136 179h428q126 0 198 -49.5t72 -141.5q0 -56 -27 -92.5t-65 -48.5
q47 -14 76.5 -54.5t29.5 -99.5q0 -94 -63 -146t-215 -52h-602z" />
    <glyph glyph-name="twothirds" unicode="&#x2154;" horiz-adv-x="2121" 
d="M115 1229l135 178h401q151 0 223 -56t72 -157q0 -91 -65 -144t-193 -53h-326q-71 0 -71 -51v-47h661l-137 -176h-729v221q0 189 258 189h326q71 0 71 49q0 26 -17.5 36.5t-53.5 10.5h-555zM1520 1446h172l-1092 -1524h-186zM1157 -18l133 176h469q66 0 66 45
q0 25 -15.5 36t-50.5 11h-409l110 147h303q60 0 60 47q0 43 -60 43h-573l135 179h428q126 0 198 -49.5t72 -141.5q0 -56 -27 -92.5t-65 -48.5q47 -14 77 -54.5t30 -99.5q0 -94 -63.5 -146t-215.5 -52h-602z" />
    <glyph glyph-name="oneeighth" unicode="&#x215b;" horiz-adv-x="1970" 
d="M86 1229l127 178h252v-684h-213v506h-166zM1268 1446h172l-1092 -1524h-186zM1608 -18h-336q-152 0 -214.5 52t-62.5 146q0 59 30 99.5t77 54.5q-39 12 -65.5 48.5t-26.5 92.5q0 92 71.5 141.5t196.5 49.5h324q126 0 198 -49.5t72 -141.5q0 -56 -27.5 -92.5t-66.5 -48.5
q48 -14 77 -54t29 -100q0 -94 -62 -146t-214 -52zM1608 250h-336q-66 0 -66 -47q0 -45 66 -45h336q35 0 50 10.5t15 34.5q0 25 -15 36t-50 11zM1612 487h-344q-58 0 -58 -43q0 -47 58 -47h344q57 0 57 47q0 43 -57 43z" />
    <glyph glyph-name="threeeighths" unicode="&#x215c;" horiz-adv-x="2236" 
d="M86 723l133 176h469q66 0 66 45q0 25 -15.5 36t-50.5 11h-409l110 148h303q60 0 60 47q0 43 -60 43h-573l135 178h428q127 0 198.5 -49t71.5 -141q0 -56 -27 -93t-65 -49q47 -14 77 -54t30 -99q0 -94 -63.5 -146.5t-215.5 -52.5h-602zM1573 1446h172l-1092 -1524h-186z
M1874 -18h-336q-152 0 -214 52t-62 146q0 59 29.5 99.5t76.5 54.5q-39 12 -65.5 48.5t-26.5 92.5q0 92 71.5 141.5t196.5 49.5h324q126 0 198 -49.5t72 -141.5q0 -56 -27.5 -92.5t-66.5 -48.5q48 -14 77 -54t29 -100q0 -94 -62 -146t-214 -52zM1874 250h-336q-65 0 -65 -47
q0 -45 65 -45h336q35 0 50 10.5t15 34.5q0 25 -15 36t-50 11zM1878 487h-344q-57 0 -57 -43q0 -47 57 -47h344q57 0 57 47q0 43 -57 43z" />
    <glyph glyph-name="fiveeighths" unicode="&#x215d;" horiz-adv-x="2172" 
d="M121 1407h776l-137 -178h-428v-96h332q258 0 258 -189q0 -221 -295 -221h-541l135 176h424q72 0 72 47q0 51 -72 51h-524v410zM1509 1446h172l-1091 -1524h-187zM1810 -18h-335q-152 0 -214.5 52t-62.5 146q0 59 30 99.5t77 54.5q-39 12 -66 48.5t-27 92.5q0 92 72 141.5
t197 49.5h323q127 0 199 -49.5t72 -141.5q0 -56 -28 -92.5t-67 -48.5q48 -14 77.5 -54.5t29.5 -99.5q0 -94 -62.5 -146t-214.5 -52zM1810 250h-335q-66 0 -66 -47q0 -45 66 -45h335q66 0 66 45q0 25 -15.5 36t-50.5 11zM1815 487h-345q-57 0 -57 -43q0 -47 57 -47h345
q57 0 57 47q0 43 -57 43z" />
    <glyph glyph-name="seveneighths" unicode="&#x215e;" horiz-adv-x="2011" 
d="M895 1235l-438 -512h-269l338 377q91 104 125 133q-39 -4 -192 -4h-373l135 178h592q56 0 86.5 -26t30.5 -66t-35 -80zM1348 1446h172l-1092 -1524h-186zM1649 -18h-336q-152 0 -214.5 52t-62.5 146q0 59 30 99.5t77 54.5q-39 12 -65.5 48.5t-26.5 92.5q0 92 71.5 141.5
t196.5 49.5h323q127 0 199 -49.5t72 -141.5q0 -56 -27.5 -92.5t-66.5 -48.5q48 -14 77 -54t29 -100q0 -94 -62 -146t-214 -52zM1649 250h-336q-66 0 -66 -47q0 -45 66 -45h336q35 0 50 10.5t15 34.5q0 25 -15 36t-50 11zM1653 487h-344q-58 0 -58 -43q0 -47 58 -47h344
q57 0 57 47q0 43 -57 43z" />
    <glyph glyph-name="minus" unicode="&#x2212;" horiz-adv-x="1288" 
d="M1204 811v-229h-1118v229h1118z" />
    <glyph glyph-name="approxequal" unicode="&#x2248;" horiz-adv-x="1161" 
d="M782 705q-51 0 -113 23.5t-111 52t-110.5 52t-111.5 23.5q-129 0 -254 -168v336q129 135 280 135q50 0 111.5 -23.5t110.5 -51t112.5 -51t116.5 -23.5q129 0 254 164v-336q-133 -133 -285 -133zM788 219q-51 0 -113 23.5t-111 52.5t-110.5 52.5t-111.5 23.5
q-129 0 -254 -168v336q129 135 281 135q50 0 111 -23.5t110 -51.5t112.5 -51.5t116.5 -23.5q129 0 254 164v-336q-133 -133 -285 -133z" />
    <glyph glyph-name="notequal" unicode="&#x2260;" horiz-adv-x="1288" 
d="M1204 1081v-229h-346l-225 -313h571v-230h-735l-276 -387h-187l281 387h-201v230h367l227 313h-594v229h760l264 365h172l-260 -365h182z" />
    <glyph glyph-name="lessequal" unicode="&#x2264;" horiz-adv-x="1251" 
d="M1167 360v-249l-1007 471q-74 33 -74 108t74 111l1007 471v-250l-714 -332zM1204 -4v-229h-1118v229h1118z" />
    <glyph glyph-name="greaterequal" unicode="&#x2265;" horiz-adv-x="1251" 
d="M86 111v249l715 330l-715 332v250l1008 -471q73 -37 73 -111q0 -33 -18.5 -62t-54.5 -46zM1204 -4v-229h-1118v229h1118z" />
    <glyph glyph-name="CR" horiz-adv-x="784" 
 />
    </font>
</defs>
</svg>
